<svg version="1.1" id="Layer_1" xmlns="http://www.w3.org/2000/svg" xmlns:xlink="http://www.w3.org/1999/xlink" x="0px" y="0px"
	 width="100%" viewBox="0 0 285 177" enable-background="new 0 0 285 177" xml:space="preserve">
<path fill="#FCFCFC" opacity="1.000000" stroke="none" 
	d="
M191.000000,178.000000 
	C127.333344,178.000000 64.166679,178.000000 1.000017,178.000000 
	C1.000011,119.000015 1.000011,60.000031 1.000006,1.000033 
	C95.999969,1.000022 190.999939,1.000022 285.999939,1.000011 
	C285.999939,59.999969 285.999939,118.999939 285.999969,177.999954 
	C254.500000,178.000000 223.000000,178.000000 191.000000,178.000000 
M88.070694,37.564507 
	C88.373161,37.887417 88.675621,38.210323 88.978088,38.533226 
	C89.159279,38.324684 89.340477,38.116142 89.521675,37.907604 
	C89.013344,37.606117 88.505005,37.304626 87.860413,36.276917 
	C87.073509,35.811031 86.286613,35.345142 85.499725,34.184082 
	C86.136589,32.728676 86.773445,31.273270 88.297218,29.904911 
	C88.946777,29.612999 89.596329,29.321087 90.245888,29.029175 
	C89.522591,28.680496 88.799286,28.331818 88.193810,27.101021 
	C89.494781,23.390373 90.795761,19.679726 92.177200,15.739576 
	C91.044930,15.383214 90.119865,15.343905 89.553528,14.873087 
	C85.781631,11.737360 83.693474,12.738001 82.345665,17.286966 
	C80.473183,23.606777 78.253288,29.823650 75.429558,36.057335 
	C74.676971,36.030945 73.924393,36.004551 73.119476,35.195351 
	C74.662094,29.033213 76.204704,22.871075 77.763077,16.645992 
	C74.022018,15.273430 70.817337,14.097659 67.118828,12.740705 
	C56.762741,41.319233 46.550400,69.501099 36.225182,97.994446 
	C38.867023,99.015793 41.119732,99.886703 43.663422,100.870102 
	C44.988213,97.234894 46.046516,93.924164 47.394173,90.735733 
	C49.086010,86.732994 51.014931,82.830467 53.268936,79.097214 
	C53.268936,79.097214 53.732140,78.981949 54.045242,79.808632 
	C53.176861,85.488800 52.308483,91.168968 51.381794,97.230522 
	C54.607815,98.428864 57.928242,99.662270 61.203503,100.878899 
	C61.979691,99.337387 62.565582,98.173805 63.744419,97.014114 
	C64.272827,96.831833 64.801239,96.649551 65.329651,96.467270 
	C64.850174,95.967102 64.370697,95.466934 63.901974,94.229202 
	C64.972961,91.488792 66.043953,88.748375 67.713928,86.024536 
	C68.250404,85.843079 68.786888,85.661621 69.323364,85.480164 
	C68.843620,84.974922 68.363876,84.469673 67.846382,83.248383 
	C68.324692,82.172096 68.803009,81.095802 69.975113,80.016785 
	C73.748505,78.038567 73.406380,74.007812 74.521561,70.718208 
	C74.540802,70.661430 73.435295,70.223358 72.914261,69.207672 
	C76.739449,58.734329 80.564636,48.260983 85.141594,37.900852 
	C86.095436,37.599453 87.049286,37.298058 88.070694,37.564507 
M194.298828,77.999374 
	C193.716934,78.374916 193.135040,78.750458 192.553146,79.126007 
	C193.215073,79.459175 193.876999,79.792343 194.400269,80.906372 
	C192.408844,86.539993 191.499634,92.200356 193.246170,98.101135 
	C193.389954,98.786949 193.533737,99.472763 193.614853,100.850006 
	C192.979507,102.663895 192.344162,104.477783 191.617996,106.550949 
	C194.386230,107.576721 196.640228,108.411942 199.529907,109.482712 
	C200.435760,103.896072 203.059830,100.290169 208.279892,98.603973 
	C209.841904,98.099411 211.288101,95.884277 211.928940,94.137856 
	C213.731659,89.225075 215.087677,84.148376 217.097382,78.995438 
	C217.103043,78.335823 217.108704,77.676208 217.148453,76.141495 
	C217.655762,70.809357 218.163071,65.477226 219.200607,59.930935 
	C219.150543,58.956432 219.100464,57.981930 218.953979,56.112801 
	C219.192535,53.456287 219.431091,50.799774 220.242722,47.837715 
	C220.160370,46.224926 220.078003,44.612137 219.906662,42.212593 
	C220.118317,41.185833 220.329971,40.159073 221.127899,38.920616 
	C221.093521,37.614990 221.059143,36.309361 221.029358,34.353142 
	C221.145630,33.936432 221.261887,33.519722 221.962997,32.978443 
	C222.004379,31.989746 222.045776,31.001051 222.097092,29.252302 
	C223.424042,26.275749 224.750992,23.299198 226.077957,20.322645 
	C226.892990,20.553619 227.708038,20.784592 228.523071,21.015566 
	C228.293854,23.043493 228.406662,25.185644 227.774353,27.078953 
	C225.428146,34.104263 225.626312,34.521950 234.247803,35.738842 
	C234.987518,30.904228 236.862885,25.875877 236.171967,21.229113 
	C235.406357,16.080095 233.467026,11.246426 236.894745,6.129658 
	C233.860703,5.123761 231.583557,4.368806 229.045700,3.527412 
	C228.094025,6.039487 227.398590,8.250249 226.413422,10.323313 
	C225.892029,11.420472 225.052261,12.792045 224.037903,13.158428 
	C218.488998,15.162718 216.083969,19.774786 214.908493,24.820978 
	C213.188934,32.202915 212.134933,39.749340 211.007065,47.257179 
	C209.713470,55.868107 208.690323,64.519310 207.468765,73.141556 
	C206.799805,77.863335 206.224304,82.626717 205.069153,87.236649 
	C204.635101,88.968834 202.680832,90.320099 201.419647,91.845024 
	C201.408020,89.812195 201.303986,87.774521 201.410431,85.747894 
	C201.519562,83.670242 201.834595,81.603394 202.040741,78.885109 
	C200.903595,78.659767 199.766464,78.434425 198.263855,78.194878 
	C198.263855,78.194878 198.011902,77.929756 198.055573,77.333763 
	C198.114944,76.664047 198.174316,75.994339 198.233673,75.324623 
	C197.953033,75.195961 197.672394,75.067291 197.391754,74.938629 
	C196.604050,75.973740 195.816345,77.008842 195.002823,78.032654 
	C195.002823,78.032654 195.009872,78.005386 194.298828,77.999374 
M100.033043,22.503508 
	C100.064003,22.669920 100.094963,22.836332 99.760315,23.553732 
	C99.166306,24.699888 98.572296,25.846043 97.328903,27.059639 
	C96.677521,27.613729 96.026138,28.167820 95.374756,28.721910 
	C95.886421,29.141636 96.398094,29.561359 96.938400,30.491772 
	C96.957428,30.661203 96.976463,30.830633 96.597244,31.411844 
	C96.459282,31.942780 96.321312,32.473713 95.870033,33.631226 
	C95.110168,35.527706 94.350304,37.424191 93.000389,39.001251 
	C92.482994,38.631351 91.965599,38.261456 91.448204,37.891556 
	C91.276215,38.076530 91.104233,38.261501 90.932251,38.446476 
	C91.497841,39.563885 92.063431,40.681297 92.700012,42.455532 
	C92.174446,43.653206 91.648880,44.850876 90.393616,45.964027 
	C85.926003,46.998363 88.357803,49.674706 89.046211,52.500614 
	C88.838600,53.030125 88.630997,53.559635 87.775795,53.993931 
	C87.046814,53.210510 86.317825,52.427086 85.588837,51.643661 
	C85.256081,51.687878 84.923325,51.732094 84.590576,51.776310 
	C85.100014,54.599674 85.609451,57.423035 86.140274,60.689453 
	C86.140274,60.689453 85.811577,60.987309 85.160522,60.992279 
	C84.595375,61.401001 84.030228,61.809723 83.465088,62.218449 
	C84.011147,62.487663 84.557213,62.756878 85.073845,63.661549 
	C84.643143,64.578285 84.212448,65.495026 83.339920,66.171623 
	C83.272064,66.800270 83.204201,67.428909 83.072174,68.821640 
	C81.753860,72.213074 80.435547,75.604507 78.472122,79.270340 
	C77.058884,81.443825 75.438736,83.521393 74.359428,85.849678 
	C74.038658,86.541634 75.237358,87.937958 75.759941,89.818100 
	C76.182007,93.417480 76.604080,97.016853 77.026146,100.616234 
	C79.813171,100.127914 83.517372,100.584671 85.196671,98.954933 
	C88.714424,95.541008 92.054771,93.454918 97.285667,95.406502 
	C97.463676,94.478577 97.641685,93.550644 97.844856,91.955803 
	C98.532646,90.330276 99.220444,88.704758 100.160637,86.633736 
	C100.174370,86.463615 100.188103,86.293495 100.192894,85.585632 
	C100.817741,84.059143 101.442596,82.532654 102.828766,80.987305 
	C103.462975,80.613846 104.097183,80.240387 104.731384,79.866920 
	C104.221718,79.192711 103.712051,78.518509 103.204720,76.992836 
	C104.607117,73.344620 106.009514,69.696404 107.960945,65.959404 
	C108.609100,63.566811 109.257263,61.174213 109.928032,58.174274 
	C110.001427,57.575428 110.074821,56.976582 110.730721,56.013634 
	C110.485649,55.379299 110.240578,54.744965 109.403427,53.710674 
	C107.104637,53.699715 104.496269,49.640587 101.798729,54.043785 
	C100.822563,52.950584 99.846405,51.857388 98.846359,50.215206 
	C99.082832,49.741669 99.319298,49.268131 100.345940,48.879425 
	C101.182739,48.350861 102.019547,47.822300 102.856346,47.293739 
	C102.245094,46.530502 101.633850,45.767265 101.087410,44.261765 
	C102.289772,41.131351 103.492126,38.000938 105.375816,34.982979 
	C106.283188,35.211441 107.190567,35.439903 108.097939,35.668365 
	C108.327812,35.404240 108.557686,35.140114 108.787560,34.875988 
	C107.786385,33.899464 106.785210,32.922939 105.783363,31.285240 
	C105.932968,30.872810 106.082573,30.460381 106.952896,29.852066 
	C107.061203,28.989719 107.169510,28.127373 107.329742,26.490067 
	C108.518417,24.454241 109.707092,22.418413 110.895760,20.382587 
	C111.676231,20.682961 112.456696,20.983334 113.237160,21.283707 
	C112.304268,25.294674 111.371376,29.305643 110.399353,33.484859 
	C113.000496,34.418411 115.399078,35.279263 117.769089,36.129860 
	C118.713043,33.714905 119.429565,31.881817 120.843422,29.945509 
	C123.101608,28.415495 124.495468,26.840778 120.917671,24.209677 
	C120.625282,21.802298 120.332893,19.394920 120.493767,16.647654 
	C119.802261,16.083765 119.110764,15.519876 117.751488,14.626764 
	C110.951241,11.179513 106.514900,12.305371 102.281479,18.649008 
	C102.092079,18.742085 101.902687,18.835163 101.032471,18.947128 
	C100.142334,19.520275 99.252205,20.093424 98.362076,20.666571 
	C98.904610,21.110235 99.447136,21.553898 100.033043,22.503508 
M259.806641,22.705589 
	C258.872070,22.137287 257.937531,21.568985 256.951233,20.262415 
	C257.463196,18.632607 257.975159,17.002798 258.399994,15.650339 
	C255.968842,14.690987 253.757507,13.818377 251.074326,12.759578 
	C240.759720,41.197861 230.540359,69.373512 220.168533,97.969536 
	C222.944290,99.038673 225.374374,99.974663 228.526138,100.976227 
	C231.703705,100.583511 234.881271,100.190796 238.748703,100.096321 
	C241.775101,102.405083 242.774078,99.862968 243.524414,97.838028 
	C245.689819,91.994209 247.566223,86.044128 249.648010,80.168343 
	C256.051086,62.095875 262.497040,44.038593 269.326660,25.588818 
	C269.418793,25.056671 269.510895,24.524527 270.063965,23.399706 
	C270.740417,21.277615 271.416901,19.155523 272.586121,16.699234 
	C271.388306,15.923370 270.190521,15.147506 268.419708,13.889226 
	C266.970703,14.096699 264.511108,10.757624 263.595215,15.203292 
	C263.547882,15.805108 263.500580,16.406925 263.206238,17.557219 
	C263.152039,17.750267 263.097870,17.943317 262.347321,18.314894 
	C261.601440,19.972460 260.855560,21.630024 259.806641,22.705589 
M106.478409,97.678871 
	C109.161346,98.774834 111.844276,99.870789 114.804810,101.080147 
	C116.944221,94.894356 118.912857,89.202339 120.931381,83.366089 
	C117.814041,82.205963 115.374947,81.298256 113.438805,80.577713 
	C111.868256,81.988541 110.767227,82.977585 109.218964,84.137711 
	C109.382660,84.114639 109.546356,84.091576 110.485382,84.770485 
	C109.376213,87.853539 108.267036,90.936592 106.507385,94.052040 
	C106.362358,95.080467 106.217331,96.108887 106.478409,97.678871 
M146.829178,60.800423 
	C150.011642,52.056698 153.199692,43.314999 156.373596,34.568165 
	C157.509796,31.436892 158.355087,28.165258 159.830246,25.205423 
	C160.654022,23.552570 162.498077,22.408226 163.882385,21.034739 
	C164.029358,22.858839 164.496689,24.728985 164.242798,26.495476 
	C163.920212,28.739929 163.012848,30.900337 162.257706,33.431950 
	C164.807373,34.416862 167.068893,35.290462 169.613770,36.273518 
	C170.277359,34.344456 170.868958,32.824650 171.319427,31.264101 
	C171.871384,29.351967 172.416946,27.425838 172.768799,25.470406 
	C173.759766,19.963369 171.752426,15.342857 167.732254,13.615541 
	C162.864563,11.524084 157.432739,13.287721 154.267548,18.125761 
	C153.272156,19.647215 152.419632,21.312994 151.799194,23.020790 
	C147.205444,35.665409 142.686798,48.337318 137.898560,61.602661 
	C137.758286,62.012882 137.618011,62.423107 137.017044,63.350433 
	C136.300949,65.550873 135.584869,67.751305 134.374954,70.289467 
	C134.263611,70.865044 134.152283,71.440628 133.657867,72.536385 
	C133.436661,73.356911 133.215454,74.177429 132.507416,75.441628 
	C132.351257,76.294289 132.195099,77.146942 131.574417,78.569603 
	C130.688278,82.925217 129.054459,87.303368 129.184799,91.628342 
	C129.268539,94.406868 131.338379,97.920380 133.621582,99.634071 
	C136.398087,101.718025 140.349899,103.275719 143.615021,99.434334 
	C145.239517,97.523117 146.988617,95.717796 149.352432,93.880127 
	C149.432770,93.211349 149.513092,92.542580 149.807281,91.187012 
	C150.583725,89.462067 151.360168,87.737129 152.828384,85.989906 
	C153.497375,85.466835 154.166367,84.943771 154.835358,84.420700 
	C154.279663,83.943192 153.723984,83.465675 153.239182,82.130348 
	C154.453308,77.254089 150.054749,79.111382 147.825272,77.441383 
	C147.243912,77.628288 146.662537,77.815193 145.804749,78.347038 
	C145.804749,78.347038 145.916199,78.774796 145.268127,79.163025 
	C144.383743,81.462074 143.499359,83.761124 142.392700,86.715591 
	C141.248901,88.914787 140.105118,91.113983 138.961319,93.313187 
	C138.309601,93.012169 137.657898,92.711143 137.006195,92.410126 
	C136.865448,85.832809 139.947540,80.043739 142.975800,73.925507 
	C144.208557,69.785065 145.441315,65.644623 146.829178,60.800423 
M173.226089,55.998821 
	C172.620056,56.357811 172.014008,56.716801 171.407974,57.075794 
	C171.900955,57.386093 172.393951,57.696396 172.851425,58.724953 
	C170.259415,64.486107 167.667419,70.247261 164.384521,76.002884 
	C163.762482,76.307686 163.140427,76.612488 162.518387,76.917290 
	C163.078461,77.295097 163.638535,77.672897 164.222107,78.648010 
	C163.904495,79.136581 163.586899,79.625153 162.582260,80.122597 
	C162.402145,81.085945 162.222031,82.049301 161.968597,83.660110 
	C161.386414,84.804840 160.804214,85.949562 159.509811,87.002396 
	C158.593964,86.777115 157.678101,86.551834 156.719666,86.316086 
	C156.528534,89.724014 156.351028,92.888847 156.147903,96.720993 
	C156.070602,97.153831 155.993301,97.586670 155.227341,98.129494 
	C154.880936,99.198860 154.534546,100.268219 154.188141,101.337578 
	C154.562912,101.558311 154.937683,101.779037 155.312454,101.999771 
	C156.587997,101.150627 157.863541,100.301491 159.787018,99.836731 
	C162.910614,103.026672 163.507401,99.465042 165.547577,97.899445 
	C166.081085,96.277397 166.614578,94.655342 167.154999,92.347366 
	C167.847046,90.909241 168.539093,89.471115 169.951859,87.874725 
	C170.361038,86.344742 170.770218,84.814751 171.230347,82.657516 
	C171.538467,82.112785 171.846588,81.568062 172.824646,80.933029 
	C174.459030,80.299904 176.093430,79.666779 177.720108,79.766861 
	C177.074875,81.834549 176.429642,83.902237 175.228134,86.044647 
	C175.158051,86.697861 175.087982,87.351082 175.001144,88.764145 
	C174.328552,90.965309 173.965210,93.327721 172.918991,95.334053 
	C170.739380,99.513931 174.154587,99.486732 176.391861,100.328896 
	C178.958496,101.295036 180.669617,100.898949 181.209671,97.667381 
	C181.641357,95.084343 182.733643,92.611702 184.188477,89.831421 
	C184.235397,88.982323 184.282333,88.133217 184.341583,86.524864 
	C190.950867,63.432079 197.560135,40.339291 204.283493,16.847900 
	C200.397934,15.445575 196.893570,14.180821 193.225922,12.857142 
	C186.641159,27.529833 180.255447,41.759007 173.226089,55.998821 
M92.996262,149.434097 
	C94.995277,149.274628 96.994293,149.115158 99.556908,149.445847 
	C101.741074,149.065857 103.925247,148.685867 106.816704,148.120880 
	C107.544258,148.079193 108.271812,148.037506 109.385284,148.482788 
	C110.647385,148.195419 111.909477,147.908051 113.953506,147.392456 
	C115.303680,147.270645 116.653862,147.148834 118.452911,147.526428 
	C120.020836,147.188278 121.588753,146.850128 124.003723,146.250534 
	C129.010056,145.862106 134.016373,145.473679 139.252533,145.515213 
	C139.858948,145.255890 140.465378,144.996567 141.924423,144.448196 
	C149.031677,143.755676 156.144440,143.114929 163.245071,142.360123 
	C179.265152,140.657135 195.276337,138.870300 211.296616,137.169235 
	C226.303162,135.575790 241.316757,134.048843 256.842712,132.439194 
	C256.565552,129.717453 256.326874,127.373352 256.094208,125.088379 
	C178.186371,125.088379 100.834030,125.088379 23.125933,125.088379 
	C23.125933,127.526688 23.125933,129.661377 23.126520,132.616440 
	C24.621296,133.024506 26.115231,133.785202 27.610975,133.788773 
	C59.964092,133.866119 92.317444,133.875610 124.670593,133.815033 
	C126.158440,133.812241 127.644829,133.033630 130.031876,132.415955 
	C142.354614,132.277527 154.677338,132.139084 167.030594,132.588409 
	C166.971832,133.172104 166.913071,133.755814 166.007797,134.559418 
	C163.669617,134.694351 161.331451,134.829285 158.613235,134.478119 
	C157.732971,134.707947 156.852707,134.937775 155.141037,135.372253 
	C139.274323,136.989807 123.404053,138.573471 107.541809,140.233795 
	C89.200157,142.153641 70.865776,144.142990 52.527828,146.098267 
	C42.695499,147.146637 32.862301,148.186813 23.145779,149.218338 
	C23.145779,152.052521 23.145779,154.337875 23.145779,156.997314 
	C85.045731,160.381256 146.737320,163.753815 208.723679,167.142487 
	C208.874542,164.297134 208.993698,162.049469 209.125732,159.559128 
	C185.451416,158.235565 162.245682,156.938202 138.942734,155.072876 
	C138.269440,155.141785 137.596146,155.210693 136.265839,155.371918 
	C135.838913,155.278534 135.412003,155.185150 134.911346,154.493790 
	C134.524063,154.148590 134.136780,153.803391 133.749481,153.458206 
	C133.498352,153.962296 133.247238,154.466370 132.081970,155.099899 
	C124.711624,156.414108 117.643906,153.290314 110.150383,153.942154 
	C102.004143,154.650772 93.686111,153.451797 85.448715,152.983734 
	C83.955475,152.898895 82.489815,152.328613 81.161232,151.571075 
	C81.161232,151.571075 80.998756,151.164505 81.681740,150.722473 
	C84.123344,150.496414 86.564957,150.270370 89.342789,150.491653 
	C90.287865,150.223083 91.232941,149.954514 92.996262,149.434097 
M70.148117,90.192238 
	C70.205849,90.808434 70.263573,91.424637 70.321297,92.040833 
	C70.535301,92.004623 70.749313,91.968414 70.963326,91.932205 
	C70.824188,91.241058 70.685051,90.549919 70.148117,90.192238 
M186.784119,107.147705 
	C186.714096,106.691025 186.644073,106.234352 186.574051,105.777679 
	C186.342621,105.987946 185.895355,106.233612 185.922882,106.401398 
	C185.988358,106.800682 186.278366,107.163147 186.784119,107.147705 
M76.566238,78.294830 
	C76.295921,78.011871 76.025597,77.728912 75.755280,77.445953 
	C75.638229,77.557785 75.521187,77.669617 75.404137,77.781448 
	C75.674469,78.064163 75.944801,78.346878 76.566238,78.294830 
M82.601006,58.800652 
	C82.211395,58.796417 81.821785,58.792183 81.432175,58.787949 
	C81.430565,58.949673 81.418091,59.251961 81.428917,59.252804 
	C81.816597,59.282772 82.206459,59.284569 82.601006,58.800652 
M158.112640,81.594498 
	C158.068253,81.182739 158.023880,80.770973 157.979507,80.359207 
	C157.723373,80.529915 157.225937,80.777496 157.251709,80.858383 
	C157.382751,81.269653 157.649292,81.637749 158.112640,81.594498 
M187.730804,103.178864 
	C187.620224,103.024567 187.509644,102.870277 187.399048,102.715988 
	C187.420746,102.930557 187.442429,103.145126 187.730804,103.178864 
M78.518631,65.412964 
	C78.518631,65.412964 78.585625,65.524765 78.518631,65.412964 
M183.476349,100.557999 
	C183.476349,100.557999 183.431274,100.478004 183.476349,100.557999 
M167.482162,65.599838 
	C167.482162,65.599838 167.409927,65.480743 167.482162,65.599838 
M228.488312,37.582207 
	C228.488312,37.582207 228.428238,37.475548 228.488312,37.582207 
M196.516815,111.402748 
	C196.516815,111.402748 196.589493,111.521667 196.516815,111.402748 
M189.483444,107.580917 
	C189.483444,107.580917 189.422226,107.475037 189.483444,107.580917 
M189.583786,104.517296 
	C189.583786,104.517296 189.476929,104.581444 189.583786,104.517296 
M73.515419,83.413673 
	C73.515419,83.413673 73.578484,83.520844 73.515419,83.413673 
M78.518555,75.407669 
	C78.518555,75.407669 78.589363,75.523819 78.518555,75.407669 
M111.515770,75.419655 
	C111.515770,75.419655 111.576157,75.524422 111.515770,75.419655 
M154.583771,76.518677 
	C154.583771,76.518677 154.477463,76.582008 154.583771,76.518677 
M113.415504,77.483765 
	C113.415504,77.483765 113.519608,77.423561 113.415504,77.483765 
M155.483612,78.581184 
	C155.483612,78.581184 155.423569,78.476585 155.483612,78.581184 
M71.586594,83.515785 
	C71.586594,83.515785 71.478249,83.579895 71.586594,83.515785 
z"/>
<path fill="#0C0C0C" opacity="1.000000" stroke="none" 
	d="
M23.125933,131.796051 
	C23.125933,129.661377 23.125933,127.526688 23.125933,125.088379 
	C100.834030,125.088379 178.186371,125.088379 256.094208,125.088379 
	C256.326874,127.373352 256.565552,129.717453 256.842712,132.439194 
	C241.316757,134.048843 226.303162,135.575790 211.296616,137.169235 
	C195.276337,138.870300 179.265152,140.657135 163.245071,142.360123 
	C156.144440,143.114929 149.031677,143.755676 141.240906,144.464722 
	C140.045837,144.682587 139.534271,144.883926 139.022705,145.085251 
	C134.016373,145.473679 129.010056,145.862106 123.215988,146.249084 
	C120.953514,146.507416 119.478775,146.767212 118.004036,147.027008 
	C116.653862,147.148834 115.303680,147.270645 113.221649,147.362152 
	C111.326317,147.553162 110.162842,147.774506 108.999367,147.995819 
	C108.271812,148.037506 107.544258,148.079193 106.068146,148.068146 
	C103.210831,148.328827 101.102074,148.642273 98.993309,148.955688 
	C96.994293,149.115158 94.995277,149.274628 92.276703,149.414795 
	C90.706947,149.611755 89.856750,149.828018 89.006561,150.044312 
	C86.564957,150.270370 84.123344,150.496414 81.290192,150.699600 
	C80.470528,150.742676 80.042419,150.808624 79.614311,150.874573 
	C80.080017,151.243866 80.545723,151.613159 81.011421,151.982452 
	C82.489815,152.328613 83.955475,152.898895 85.448715,152.983734 
	C93.686111,153.451797 102.004143,154.650772 110.150383,153.942154 
	C117.643906,153.290314 124.711624,156.414108 132.856003,155.177673 
	C134.081711,155.200882 134.533401,155.146332 134.985077,155.091766 
	C135.412003,155.185150 135.838913,155.278534 136.792114,155.543076 
	C137.892242,155.689758 138.466110,155.665298 139.039963,155.640839 
	C162.245682,156.938202 185.451416,158.235565 209.125732,159.559128 
	C208.993698,162.049469 208.874542,164.297134 208.723679,167.142487 
	C146.737320,163.753815 85.045731,160.381256 23.145779,156.997314 
	C23.145779,154.337875 23.145779,152.052521 23.145779,149.218338 
	C32.862301,148.186813 42.695499,147.146637 52.527828,146.098267 
	C70.865776,144.142990 89.200157,142.153641 107.541809,140.233795 
	C123.404053,138.573471 139.274323,136.989807 155.782608,135.418182 
	C157.280548,135.297485 158.136902,135.130859 158.993271,134.964233 
	C161.331451,134.829285 163.669617,134.694351 166.850189,134.621429 
	C176.124649,134.086105 184.556717,133.488785 193.359344,132.984314 
	C194.406876,132.954559 195.083832,132.831924 195.760773,132.709290 
	C195.748550,132.520325 195.736328,132.331375 195.724091,132.142410 
	C194.811310,132.142410 193.898529,132.142410 192.562714,132.060577 
	C183.759827,131.986053 175.379944,131.993347 167.000076,132.000641 
	C154.677338,132.139084 142.354614,132.277527 129.128479,132.358154 
	C95.166351,132.288437 62.107601,132.284485 29.048904,132.244614 
	C27.074402,132.242233 25.100248,131.952225 23.125933,131.796051 
M211.694748,132.566528 
	C215.924011,132.160156 220.153290,131.753784 224.382553,131.347412 
	C224.345795,131.039474 224.309036,130.731522 224.272278,130.423569 
	C219.286026,130.423569 214.299759,130.423569 208.141708,130.423569 
	C209.731064,131.681625 210.316666,132.145157 211.694748,132.566528 
z"/>
<path fill="#0E0E0E" opacity="1.000000" stroke="none" 
	d="
M52.841537,78.884689 
	C51.014931,82.830467 49.086010,86.732994 47.394173,90.735733 
	C46.046516,93.924164 44.988213,97.234894 43.663422,100.870102 
	C41.119732,99.886703 38.867023,99.015793 36.225182,97.994446 
	C46.550400,69.501099 56.762741,41.319233 67.118828,12.740705 
	C70.817337,14.097659 74.022018,15.273430 77.763077,16.645992 
	C76.204704,22.871075 74.662094,29.033213 72.996750,35.943535 
	C71.826782,40.736492 70.779526,44.781261 69.732277,48.826027 
	C70.439156,49.051685 71.146034,49.277340 71.852921,49.502998 
	C73.295982,45.030193 74.739044,40.557392 76.182106,36.084587 
	C78.253288,29.823650 80.473183,23.606777 82.345665,17.286966 
	C83.693474,12.738001 85.781631,11.737360 89.553528,14.873087 
	C90.119865,15.343905 91.044930,15.383214 92.177200,15.739576 
	C90.795761,19.679726 89.494781,23.390373 87.938400,27.633196 
	C87.592094,28.716202 87.501198,29.267033 87.410301,29.817863 
	C86.773445,31.273270 86.136589,32.728676 85.259460,34.747040 
	C84.809395,36.135880 84.599602,36.961758 84.389816,37.787636 
	C80.564636,48.260983 76.739449,58.734329 72.614044,69.811714 
	C71.303001,73.617012 70.292160,76.818260 69.281319,80.019516 
	C68.803009,81.095802 68.324692,82.172096 67.619690,83.774582 
	C67.300323,84.869850 67.207634,85.438904 67.114944,86.007965 
	C66.043953,88.748375 64.972961,91.488792 63.652901,94.760818 
	C63.319714,95.865036 63.235596,96.437630 63.151478,97.010223 
	C62.565582,98.173805 61.979691,99.337387 61.203503,100.878899 
	C57.928242,99.662270 54.607815,98.428864 51.381794,97.230522 
	C52.308483,91.168968 53.176861,85.488800 54.232620,79.238884 
	C55.554001,73.697906 56.688000,68.726677 57.964073,63.880047 
	C58.167358,63.892410 58.228569,63.780170 58.289780,63.667934 
	C58.155281,63.732208 58.020786,63.796478 57.530693,63.951324 
	C55.730576,68.989494 54.286057,73.937088 52.841537,78.884689 
z"/>
<path fill="#101010" opacity="1.000000" stroke="none" 
	d="
M263.043701,18.136364 
	C263.097870,17.943317 263.152039,17.750267 263.576538,17.235979 
	C264.042938,16.303705 264.139038,15.692671 264.235138,15.081637 
	C264.511108,10.757624 266.970703,14.096699 268.774536,14.427510 
	C270.117371,15.655006 271.105377,16.344219 272.093384,17.033432 
	C271.416901,19.155523 270.740417,21.277615 269.575134,23.745142 
	C269.032959,24.718853 268.979614,25.347126 268.926300,25.975405 
	C262.497040,44.038593 256.051086,62.095875 249.648010,80.168343 
	C247.566223,86.044128 245.689819,91.994209 243.524414,97.838028 
	C242.774078,99.862968 241.775101,102.405083 238.167252,99.662903 
	C231.769196,97.932571 236.833984,94.384247 236.336823,91.794739 
	C237.060043,90.037346 237.543915,88.521454 238.281708,86.772720 
	C239.220413,84.345688 239.905182,82.151497 240.807693,79.620995 
	C241.345306,78.022011 241.665161,76.759338 242.272858,75.323196 
	C244.157455,70.584671 245.754227,66.019608 247.537994,60.919983 
	C245.229034,61.054665 243.788208,61.138710 242.197601,61.231487 
	C240.764343,65.573082 239.373779,69.785339 237.773956,74.301193 
	C236.637817,77.381584 235.710983,80.158363 234.545029,83.112816 
	C234.207260,83.860794 234.108612,84.431107 233.820190,85.314224 
	C232.650558,88.596756 231.670700,91.566475 230.444138,94.795364 
	C229.399780,97.006577 228.602127,98.958618 227.804474,100.910660 
	C225.374374,99.974663 222.944290,99.038673 220.168533,97.969536 
	C230.540359,69.373512 240.759720,41.197861 251.074326,12.759578 
	C253.757507,13.818377 255.968842,14.690987 258.399994,15.650339 
	C257.975159,17.002798 257.463196,18.632607 256.739075,20.908306 
	C252.883667,31.889265 249.240372,42.224335 245.366333,53.213985 
	C247.992554,53.066917 249.745087,52.968773 251.139221,52.890701 
	C254.316025,43.317719 257.354279,34.162243 260.718048,24.910357 
	C261.710297,22.588083 262.377014,20.362223 263.043701,18.136364 
z"/>
<path fill="#101010" opacity="1.000000" stroke="none" 
	d="
M160.222031,87.094292 
	C160.804214,85.949562 161.386414,84.804840 162.291595,83.162888 
	C162.832825,81.815010 163.051056,80.964363 163.269302,80.113724 
	C163.586899,79.625153 163.904495,79.136581 164.457230,78.178925 
	C164.820053,77.142700 164.947739,76.575562 165.075424,76.008423 
	C167.667419,70.247261 170.259415,64.486107 173.073914,58.156754 
	C173.487503,57.055099 173.678619,56.521641 173.869720,55.988182 
	C180.255447,41.759007 186.641159,27.529833 193.225922,12.857142 
	C196.893570,14.180821 200.397934,15.445575 204.283493,16.847900 
	C197.560135,40.339291 190.950867,63.432079 184.104187,87.115387 
	C183.755447,88.500633 183.644104,89.295349 183.532745,90.090065 
	C182.733643,92.611702 181.641357,95.084343 181.209671,97.667381 
	C180.669617,100.898949 178.958496,101.295036 176.391861,100.328896 
	C174.154587,99.486732 170.739380,99.513931 172.918991,95.334053 
	C173.965210,93.327721 174.328552,90.965309 175.262451,88.222641 
	C175.610657,87.110741 175.697525,86.540329 175.784409,85.969925 
	C176.429642,83.902237 177.074875,81.834549 177.976776,79.113632 
	C178.354111,77.721069 178.474777,76.981743 178.643646,76.128342 
	C178.691864,76.014267 178.717789,75.767937 178.917877,75.535843 
	C179.274841,74.517601 179.431717,73.731461 179.760498,72.648132 
	C179.944534,71.897125 179.956665,71.443306 180.243042,70.748779 
	C181.370102,67.473038 182.222931,64.437988 183.075745,61.402946 
	C178.376877,62.826374 178.098938,66.677711 176.641922,70.193909 
	C175.866058,71.937927 175.332031,73.439629 174.539017,75.154167 
	C173.571594,77.252457 172.863159,79.137901 172.154724,81.023338 
	C171.846588,81.568062 171.538467,82.112785 171.009705,83.229713 
	C170.269745,85.212273 169.750443,86.622635 169.231140,88.032990 
	C168.539093,89.471115 167.847046,90.909241 166.898804,92.917374 
	C166.050079,94.970345 165.457535,96.453308 164.864990,97.936264 
	C163.507401,99.465042 162.910614,103.026672 159.216034,99.483368 
	C157.735367,98.759842 156.825684,98.389679 155.916016,98.019516 
	C155.993301,97.586670 156.070602,97.153831 156.428833,96.172958 
	C157.880508,92.781380 159.051270,89.937836 160.222031,87.094292 
M187.375763,41.964127 
	C185.936935,45.502560 184.498108,49.040997 182.909317,52.948223 
	C187.485245,52.467125 190.720139,44.211128 188.890747,39.070549 
	C188.396912,40.003490 188.053528,40.652222 187.375763,41.964127 
z"/>
<path fill="#111111" opacity="1.000000" stroke="none" 
	d="
M218.670380,60.145088 
	C218.163071,65.477226 217.655762,70.809357 216.904877,76.780426 
	C216.647491,77.991676 216.633652,78.563995 216.619812,79.136307 
	C215.087677,84.148376 213.731659,89.225075 211.928940,94.137856 
	C211.288101,95.884277 209.841904,98.099411 208.279892,98.603973 
	C203.059830,100.290169 200.435760,103.896072 199.529907,109.482712 
	C196.640228,108.411942 194.386230,107.576721 191.617996,106.550949 
	C192.344162,104.477783 192.979507,102.663895 193.832733,100.334557 
	C194.026794,99.194229 194.002991,98.569351 193.979187,97.944473 
	C191.499634,92.200356 192.408844,86.539993 194.663223,80.306061 
	C194.954071,79.138962 194.981979,78.572174 195.009872,78.005386 
	C195.009872,78.005386 195.002823,78.032654 195.386780,77.987160 
	C196.517776,77.937698 197.264847,77.933731 198.011902,77.929764 
	C198.011902,77.929756 198.263855,78.194878 198.648392,78.457695 
	C200.041794,78.990952 201.050644,79.261383 202.059509,79.531815 
	C201.834595,81.603394 201.519562,83.670242 201.410431,85.747894 
	C201.303986,87.774521 201.408020,89.812195 201.419647,91.845024 
	C202.680832,90.320099 204.635101,88.968834 205.069153,87.236649 
	C206.224304,82.626717 206.799805,77.863335 207.468765,73.141556 
	C208.690323,64.519310 209.713470,55.868107 211.007065,47.257179 
	C212.134933,39.749340 213.188934,32.202915 214.908493,24.820978 
	C216.083969,19.774786 218.488998,15.162718 224.037903,13.158428 
	C225.052261,12.792045 225.892029,11.420472 226.413422,10.323313 
	C227.398590,8.250249 228.094025,6.039487 229.045700,3.527412 
	C231.583557,4.368806 233.860703,5.123761 236.894745,6.129658 
	C233.467026,11.246426 235.406357,16.080095 236.171967,21.229113 
	C236.862885,25.875877 234.987518,30.904228 234.247803,35.738842 
	C225.626312,34.521950 225.428146,34.104263 227.774353,27.078953 
	C228.406662,25.185644 228.293854,23.043493 228.523071,21.015566 
	C227.708038,20.784592 226.892990,20.553619 226.077957,20.322645 
	C224.750992,23.299198 223.424042,26.275749 221.848511,29.869537 
	C221.526001,31.358852 221.452087,32.230934 221.378159,33.103012 
	C221.261887,33.519722 221.145630,33.936432 220.796707,34.955437 
	C220.556580,36.749260 220.549103,37.940784 220.541626,39.132313 
	C220.329971,40.159073 220.118317,41.185833 219.751434,42.924377 
	C219.620682,45.138531 219.645172,46.640896 219.669647,48.143261 
	C219.431091,50.799774 219.192535,53.456287 218.796326,56.823807 
	C218.649231,58.404903 218.659805,59.274994 218.670380,60.145088 
z"/>
<path fill="#0C0C0C" opacity="1.000000" stroke="none" 
	d="
M85.811577,60.987309 
	C85.811577,60.987309 86.140274,60.689453 86.386917,60.205177 
	C87.230179,57.843651 87.826782,55.966400 88.423393,54.089149 
	C88.630997,53.559635 88.838600,53.030125 89.252747,51.966652 
	C90.013954,49.637974 90.568634,47.843262 91.123314,46.048550 
	C91.648880,44.850876 92.174446,43.653206 92.875740,41.859257 
	C93.231133,40.615547 93.410789,39.968109 93.590446,39.320675 
	C94.350304,37.424191 95.110168,35.527706 96.357056,33.313385 
	C97.701126,32.644115 98.558174,32.292690 99.415222,31.941265 
	C99.354416,31.683655 99.293617,31.426046 99.232819,31.168436 
	C98.487045,31.112312 97.741280,31.056187 96.995506,31.000065 
	C96.976463,30.830633 96.957428,30.661203 97.156090,30.000937 
	C97.575279,28.670799 97.776779,27.831499 97.978279,26.992197 
	C98.572296,25.846043 99.166306,24.699888 100.344131,23.260632 
	C101.573784,21.446539 102.219612,19.925549 102.865440,18.404560 
	C106.514900,12.305371 110.951241,11.179513 118.116455,15.061168 
	C119.001122,15.992896 119.520813,16.490221 120.040512,16.987545 
	C120.332893,19.394920 120.625282,21.802298 120.843124,24.942657 
	C120.561073,27.133335 120.353577,28.591032 120.146080,30.048729 
	C119.429565,31.881817 118.713043,33.714905 117.769089,36.129860 
	C115.399078,35.279263 113.000496,34.418411 110.399353,33.484859 
	C111.371376,29.305643 112.304268,25.294674 113.237160,21.283707 
	C112.456696,20.983334 111.676231,20.682961 110.895760,20.382587 
	C109.707092,22.418413 108.518417,24.454241 107.060661,27.079920 
	C106.605118,28.462500 106.418655,29.255226 106.232185,30.047951 
	C106.082573,30.460381 105.932968,30.872810 105.516342,31.810225 
	C105.064377,33.180313 104.879433,34.025417 104.694489,34.870525 
	C103.492126,38.000938 102.289772,41.131351 100.808899,44.877007 
	C100.205513,46.593033 99.880646,47.693813 99.555771,48.794594 
	C99.319298,49.268131 99.082832,49.741669 98.588799,50.739311 
	C93.414116,64.893288 88.496994,78.523163 83.450798,92.510826 
	C87.824287,92.584991 89.845505,90.884239 90.795959,87.345863 
	C91.562927,84.490616 92.844612,81.773628 94.220093,78.959259 
	C94.546036,78.234489 94.549835,77.545746 94.573990,76.481659 
	C97.246109,68.815804 99.897881,61.525303 102.549644,54.234802 
	C104.496269,49.640587 107.104637,53.699715 109.704147,54.289688 
	C110.052643,55.371712 110.100433,55.874722 110.148216,56.377735 
	C110.074821,56.976582 110.001427,57.575428 109.634415,58.675957 
	C108.697838,61.467827 108.054871,63.758011 107.411911,66.048195 
	C106.009514,69.696404 104.607117,73.344620 102.984726,77.612778 
	C102.532310,79.157204 102.299873,80.081680 102.067444,81.006157 
	C101.442596,82.532654 100.817741,84.059143 100.077103,85.891937 
	C99.913338,86.299286 99.825462,86.400505 99.825920,86.501328 
	C99.826797,86.694077 99.877953,86.886612 99.908241,87.079231 
	C99.220444,88.704758 98.532646,90.330276 97.578873,92.491013 
	C97.196907,93.654274 97.080933,94.282326 96.964951,94.910370 
	C92.054771,93.454918 88.714424,95.541008 85.196671,98.954933 
	C83.517372,100.584671 79.813171,100.127914 77.026146,100.616234 
	C76.604080,97.016853 76.182007,93.417480 75.932617,89.092575 
	C77.109276,85.243355 78.113258,82.119644 79.117233,78.995941 
	C80.435547,75.604507 81.753860,72.213074 83.309433,68.446724 
	C83.546692,68.071808 83.920723,67.902443 84.089455,68.150314 
	C84.857704,68.520912 85.457230,68.643654 86.056747,68.766396 
	C86.088036,68.558060 86.119331,68.349724 86.150620,68.141388 
	C85.403847,68.074638 84.657082,68.007896 83.886673,67.558090 
	C83.835945,66.920609 83.808846,66.666183 83.781754,66.411766 
	C84.212448,65.495026 84.643143,64.578285 85.325607,63.176670 
	C85.655434,62.123631 85.733505,61.555470 85.811577,60.987309 
M90.415314,58.482845 
	C90.415314,58.482845 90.521622,58.420242 90.415314,58.482845 
M97.482712,86.587021 
	C97.482712,86.587021 97.418816,86.478462 97.482712,86.587021 
z"/>
<path fill="#101010" opacity="1.000000" stroke="none" 
	d="
M138.144547,61.000648 
	C142.686798,48.337318 147.205444,35.665409 151.799194,23.020790 
	C152.419632,21.312994 153.272156,19.647215 154.267548,18.125761 
	C157.432739,13.287721 162.864563,11.524084 167.732254,13.615541 
	C171.752426,15.342857 173.759766,19.963369 172.768799,25.470406 
	C172.416946,27.425838 171.871384,29.351967 171.319427,31.264101 
	C170.868958,32.824650 170.277359,34.344456 169.613770,36.273518 
	C167.068893,35.290462 164.807373,34.416862 162.257706,33.431950 
	C163.012848,30.900337 163.920212,28.739929 164.242798,26.495476 
	C164.496689,24.728985 164.029358,22.858839 163.882385,21.034739 
	C162.498077,22.408226 160.654022,23.552570 159.830246,25.205423 
	C158.355087,28.165258 157.509796,31.436892 156.373596,34.568165 
	C153.199692,43.314999 150.011642,52.056698 146.426758,61.298103 
	C145.128906,62.616627 143.636505,63.319714 143.447113,64.279831 
	C142.812790,67.495544 142.643982,70.803085 142.296921,74.075462 
	C139.947540,80.043739 136.865448,85.832809 137.006195,92.410126 
	C137.657898,92.711143 138.309601,93.012169 138.961319,93.313187 
	C140.105118,91.113983 141.248901,88.914787 142.873871,86.255402 
	C144.208771,83.455070 145.062485,81.114937 145.916199,78.774796 
	C145.916199,78.774796 145.804749,78.347038 146.295349,78.174355 
	C147.255142,77.975975 147.724350,77.950287 148.193542,77.924599 
	C150.054749,79.111382 154.453308,77.254089 153.033676,82.837807 
	C152.597656,84.367569 152.367142,85.189880 152.136627,86.012192 
	C151.360168,87.737129 150.583725,89.462067 149.473877,91.706223 
	C148.987427,92.771820 148.834396,93.318192 148.681351,93.864571 
	C146.988617,95.717796 145.239517,97.523117 143.615021,99.434334 
	C140.349899,103.275719 136.398087,101.718025 133.621582,99.634071 
	C131.338379,97.920380 129.268539,94.406868 129.184799,91.628342 
	C129.054459,87.303368 130.688278,82.925217 132.127762,78.236786 
	C132.785492,76.935295 132.889862,75.966621 132.994232,74.997955 
	C133.215454,74.177429 133.436661,73.356911 134.102966,72.374123 
	C135.182922,72.001640 135.817810,71.791420 136.452682,71.581192 
	C135.924713,71.038040 135.396759,70.494888 134.868790,69.951744 
	C135.584869,67.751305 136.300949,65.550873 137.570526,63.111794 
	C138.601669,62.575863 139.079361,62.278576 139.557053,61.981293 
	C139.086212,61.654415 138.615387,61.327530 138.144547,61.000648 
M138.276779,76.895157 
	C138.182480,76.928535 138.088196,76.961922 137.723633,77.106689 
	C137.817383,77.073219 137.911148,77.039757 138.276779,76.895157 
M131.836227,91.054535 
	C131.585449,91.203461 131.209778,91.302719 131.124390,91.517418 
	C131.059082,91.681618 131.360825,91.991814 131.499298,92.237068 
	C131.638260,91.991547 131.777206,91.746025 131.836227,91.054535 
z"/>
<path fill="#E4E4E4" opacity="1.000000" stroke="none" 
	d="
M102.174187,54.139294 
	C99.897881,61.525303 97.246109,68.815804 94.405487,76.715767 
	C94.110397,77.881920 94.004166,78.438614 93.897934,78.995300 
	C92.844612,81.773628 91.562927,84.490616 90.795959,87.345863 
	C89.845505,90.884239 87.824287,92.584991 83.450798,92.510826 
	C88.496994,78.523163 93.414116,64.893288 98.600739,51.013802 
	C99.846405,51.857388 100.822563,52.950584 102.174187,54.139294 
z"/>
<path fill="#C6C6C6" opacity="1.000000" stroke="none" 
	d="
M23.126226,132.206238 
	C25.100248,131.952225 27.074402,132.242233 29.048904,132.244614 
	C62.107601,132.284485 95.166351,132.288437 128.678497,132.458359 
	C127.644829,133.033630 126.158440,133.812241 124.670593,133.815033 
	C92.317444,133.875610 59.964092,133.866119 27.610975,133.788773 
	C26.115231,133.785202 24.621296,133.024506 23.126226,132.206238 
z"/>
<path fill="#141414" opacity="1.000000" stroke="none" 
	d="
M107.157867,94.019646 
	C108.267036,90.936592 109.376213,87.853539 110.061470,84.400848 
	C109.637558,84.031219 109.666206,83.966637 109.666206,83.966637 
	C110.767227,82.977585 111.868256,81.988541 113.438805,80.577713 
	C115.374947,81.298256 117.814041,82.205963 120.931381,83.366089 
	C118.912857,89.202339 116.944221,94.894356 114.804810,101.080147 
	C111.844276,99.870789 109.161346,98.774834 106.524673,97.171982 
	C106.766586,95.783279 106.962227,94.901459 107.157867,94.019646 
z"/>
<path fill="#E4E4E4" opacity="1.000000" stroke="none" 
	d="
M260.392517,25.006767 
	C257.354279,34.162243 254.316025,43.317719 251.139221,52.890701 
	C249.745087,52.968773 247.992554,53.066917 245.366333,53.213985 
	C249.240372,42.224335 252.883667,31.889265 256.764954,21.277439 
	C257.937531,21.568985 258.872070,22.137287 259.994324,23.289505 
	C260.252197,24.251202 260.322357,24.628983 260.392517,25.006767 
z"/>
<path fill="#C6C6C6" opacity="1.000000" stroke="none" 
	d="
M192.988785,132.891449 
	C184.556717,133.488785 176.124649,134.086105 167.273438,134.511475 
	C166.913071,133.755814 166.971832,133.172104 167.015335,132.294525 
	C175.379944,131.993347 183.759827,131.986053 192.559479,132.247864 
	C192.979248,132.516968 192.988785,132.891449 192.988785,132.891449 
z"/>
<path fill="#C0C0C0" opacity="1.000000" stroke="none" 
	d="
M53.055237,78.990952 
	C54.286057,73.937088 55.730576,68.989494 57.515099,63.924702 
	C57.855103,63.807510 57.821995,63.755447 57.821999,63.755447 
	C56.688000,68.726677 55.554001,73.697906 54.076073,78.825546 
	C53.732140,78.981949 53.268936,79.097214 53.055237,78.990952 
z"/>
<path fill="#E1E1E1" opacity="1.000000" stroke="none" 
	d="
M75.805832,36.070961 
	C74.739044,40.557392 73.295982,45.030193 71.852921,49.502998 
	C71.146034,49.277340 70.439156,49.051685 69.732277,48.826027 
	C70.779526,44.781261 71.826782,40.736492 73.022919,36.334942 
	C73.924393,36.004551 74.676971,36.030945 75.805832,36.070961 
z"/>
<path fill="#E7E7E7" opacity="1.000000" stroke="none" 
	d="
M236.097504,92.036240 
	C236.833984,94.384247 231.769196,97.932571 237.822327,99.513786 
	C234.881271,100.190796 231.703705,100.583511 228.165314,100.943451 
	C228.602127,98.958618 229.399780,97.006577 230.662384,95.102829 
	C232.071320,94.843620 233.117096,94.697487 233.931107,94.183968 
	C234.770721,93.654282 235.384766,92.767044 236.097504,92.036240 
M231.514435,98.406349 
	C231.514435,98.406349 231.593567,98.530708 231.514435,98.406349 
z"/>
<path fill="#F0F0F0" opacity="1.000000" stroke="none" 
	d="
M69.628220,80.018150 
	C70.292160,76.818260 71.303001,73.617012 72.584229,70.189484 
	C73.435295,70.223358 74.540802,70.661430 74.521561,70.718208 
	C73.406380,74.007812 73.748505,78.038567 69.628220,80.018150 
z"/>
<path fill="#F0F0F0" opacity="1.000000" stroke="none" 
	d="
M78.794678,79.133141 
	C78.113258,82.119644 77.109276,85.243355 75.922562,88.689301 
	C75.237358,87.937958 74.038658,86.541634 74.359428,85.849678 
	C75.438736,83.521393 77.058884,81.443825 78.794678,79.133141 
z"/>
<path fill="#CBCBCB" opacity="1.000000" stroke="none" 
	d="
M142.636353,74.000488 
	C142.643982,70.803085 142.812790,67.495544 143.447113,64.279831 
	C143.636505,63.319714 145.128906,62.616627 146.349197,61.649986 
	C145.441315,65.644623 144.208557,69.785065 142.636353,74.000488 
z"/>
<path fill="#EDEDED" opacity="1.000000" stroke="none" 
	d="
M159.865921,87.048340 
	C159.051270,89.937836 157.880508,92.781380 156.441620,95.839294 
	C156.351028,92.888847 156.528534,89.724014 156.719666,86.316086 
	C157.678101,86.551834 158.593964,86.777115 159.865921,87.048340 
z"/>
<path fill="#E1E1E1" opacity="1.000000" stroke="none" 
	d="
M172.489685,80.978180 
	C172.863159,79.137901 173.571594,77.252457 174.935196,75.218567 
	C176.592056,75.460884 177.593750,75.851646 178.595444,76.242416 
	C178.474777,76.981743 178.354111,77.721069 177.980637,78.747025 
	C176.093430,79.666779 174.459030,80.299904 172.489685,80.978180 
z"/>
<path fill="#EDEDED" opacity="1.000000" stroke="none" 
	d="
M107.686432,66.003799 
	C108.054871,63.758011 108.697838,61.467827 109.623108,58.979630 
	C109.257263,61.174213 108.609100,63.566811 107.686432,66.003799 
z"/>
<path fill="#F0F0F0" opacity="1.000000" stroke="none" 
	d="
M88.099594,54.041542 
	C87.826782,55.966400 87.230179,57.843651 86.376228,59.983650 
	C85.609451,57.423035 85.100014,54.599674 84.590576,51.776310 
	C84.923325,51.732094 85.256081,51.687878 85.588837,51.643661 
	C86.317825,52.427086 87.046814,53.210510 88.099594,54.041542 
z"/>
<path fill="#EDEDED" opacity="1.000000" stroke="none" 
	d="
M155.571686,98.074509 
	C156.825684,98.389679 157.735367,98.759842 158.892059,99.291176 
	C157.863541,100.301491 156.587997,101.150627 155.312454,101.999771 
	C154.937683,101.779037 154.562912,101.558311 154.188141,101.337578 
	C154.534546,100.268219 154.880936,99.198860 155.571686,98.074509 
z"/>
<path fill="#ECECEC" opacity="1.000000" stroke="none" 
	d="
M120.494751,29.997120 
	C120.353577,28.591032 120.561073,27.133335 120.933411,25.346954 
	C124.495468,26.840778 123.101608,28.415495 120.494751,29.997120 
z"/>
<path fill="#F0F0F0" opacity="1.000000" stroke="none" 
	d="
M90.758469,46.006287 
	C90.568634,47.843262 90.013954,49.637974 89.217773,51.676086 
	C88.357803,49.674706 85.926003,46.998363 90.758469,46.006287 
z"/>
<path fill="#B8B8B8" opacity="1.000000" stroke="none" 
	d="
M99.275108,149.200775 
	C101.102074,148.642273 103.210831,148.328827 105.714508,148.160645 
	C103.925247,148.685867 101.741074,149.065857 99.275108,149.200775 
z"/>
<path fill="#E4E4E4" opacity="1.000000" stroke="none" 
	d="
M99.950851,48.837009 
	C99.880646,47.693813 100.205513,46.593033 100.776489,45.248138 
	C101.633850,45.767265 102.245094,46.530502 102.856346,47.293739 
	C102.019547,47.822300 101.182739,48.350861 99.950851,48.837009 
z"/>
<path fill="#141414" opacity="1.000000" stroke="none" 
	d="
M145.592163,78.968910 
	C145.062485,81.114937 144.208771,83.455070 142.985016,85.927689 
	C143.499359,83.761124 144.383743,81.462074 145.592163,78.968910 
z"/>
<path fill="#131313" opacity="1.000000" stroke="none" 
	d="
M260.718048,24.910355 
	C260.322357,24.628983 260.252197,24.251202 260.145874,23.580503 
	C260.855560,21.630024 261.601440,19.972460 262.695496,18.225628 
	C262.377014,20.362223 261.710297,22.588083 260.718048,24.910355 
z"/>
<path fill="#ECECEC" opacity="1.000000" stroke="none" 
	d="
M105.035156,34.926750 
	C104.879433,34.025417 105.064377,33.180313 105.516678,32.140812 
	C106.785210,32.922939 107.786385,33.899464 108.787560,34.875988 
	C108.557686,35.140114 108.327812,35.404240 108.097939,35.668365 
	C107.190567,35.439903 106.283188,35.211441 105.035156,34.926750 
z"/>
<path fill="#B8B8B8" opacity="1.000000" stroke="none" 
	d="
M118.228470,147.276718 
	C119.478775,146.767212 120.953514,146.507416 122.792465,146.379791 
	C121.588753,146.850128 120.020836,147.188278 118.228470,147.276718 
z"/>
<path fill="#C4C4C4" opacity="1.000000" stroke="none" 
	d="
M219.956192,47.990486 
	C219.645172,46.640896 219.620682,45.138531 219.795929,43.317757 
	C220.078003,44.612137 220.160370,46.224926 219.956192,47.990486 
z"/>
<path fill="#E1E1E1" opacity="1.000000" stroke="none" 
	d="
M165.206284,97.917854 
	C165.457535,96.453308 166.050079,94.970345 166.895340,93.260338 
	C166.614578,94.655342 166.081085,96.277397 165.206284,97.917854 
z"/>
<path fill="#ECECEC" opacity="1.000000" stroke="none" 
	d="
M99.989670,21.997562 
	C99.447136,21.553898 98.904610,21.110235 98.362076,20.666571 
	C99.252205,20.093424 100.142334,19.520275 101.341888,19.244938 
	C101.097420,20.361021 100.543549,21.179291 99.989670,21.997562 
z"/>
<path fill="#E1E1E1" opacity="1.000000" stroke="none" 
	d="
M198.033737,77.631760 
	C197.264847,77.933731 196.517776,77.937698 195.399673,77.992813 
	C195.816345,77.008842 196.604050,75.973740 197.391754,74.938629 
	C197.672394,75.067291 197.953033,75.195961 198.233673,75.324623 
	C198.174316,75.994339 198.114944,76.664047 198.033737,77.631760 
z"/>
<path fill="#EDEDED" opacity="1.000000" stroke="none" 
	d="
M102.448105,80.996735 
	C102.299873,80.081680 102.532310,79.157204 102.983566,78.038513 
	C103.712051,78.518509 104.221718,79.192711 104.731384,79.866920 
	C104.097183,80.240387 103.462975,80.613846 102.448105,80.996735 
z"/>
<path fill="#131313" opacity="1.000000" stroke="none" 
	d="
M272.339722,16.866333 
	C271.105377,16.344219 270.117371,15.655006 269.061066,14.668718 
	C270.190521,15.147506 271.388306,15.923370 272.339722,16.866333 
z"/>
<path fill="#E1E1E1" opacity="1.000000" stroke="none" 
	d="
M169.591492,87.953857 
	C169.750443,86.622635 170.269745,85.212273 170.984222,83.543335 
	C170.770218,84.814751 170.361038,86.344742 169.591492,87.953857 
z"/>
<path fill="#F0F0F0" opacity="1.000000" stroke="none" 
	d="
M97.653595,27.025917 
	C97.776779,27.831499 97.575279,28.670799 97.141769,29.745594 
	C96.398094,29.561359 95.886421,29.141636 95.374756,28.721909 
	C96.026138,28.167820 96.677521,27.613729 97.653595,27.025917 
z"/>
<path fill="#C4C4C4" opacity="1.000000" stroke="none" 
	d="
M220.834763,39.026466 
	C220.549103,37.940784 220.556580,36.749260 220.794403,35.280731 
	C221.059143,36.309361 221.093521,37.614990 220.834763,39.026466 
z"/>
<path fill="#F0F0F0" opacity="1.000000" stroke="none" 
	d="
M84.765701,37.844246 
	C84.599602,36.961758 84.809395,36.135880 85.259445,35.094627 
	C86.286613,35.345142 87.073509,35.811031 87.930206,36.638458 
	C88.000000,37.000000 88.003128,36.996662 88.003128,36.996658 
	C87.049286,37.298058 86.095436,37.599453 84.765701,37.844246 
z"/>
<path fill="#101010" opacity="1.000000" stroke="none" 
	d="
M100.011353,22.250534 
	C100.543549,21.179291 101.097420,20.361021 101.682297,19.235497 
	C101.902687,18.835163 102.092079,18.742085 102.573456,18.526783 
	C102.219612,19.925549 101.573784,21.446539 100.526932,22.985138 
	C100.094963,22.836332 100.064003,22.669920 100.011353,22.250534 
z"/>
<path fill="#B8B8B8" opacity="1.000000" stroke="none" 
	d="
M109.192322,148.239319 
	C110.162842,147.774506 111.326317,147.553162 112.830688,147.476257 
	C111.909477,147.908051 110.647385,148.195419 109.192322,148.239319 
z"/>
<path fill="#EDEDED" opacity="1.000000" stroke="none" 
	d="
M152.482498,86.001053 
	C152.367142,85.189880 152.597656,84.367569 152.998230,83.266708 
	C153.723984,83.465675 154.279663,83.943192 154.835358,84.420700 
	C154.166367,84.943771 153.497375,85.466835 152.482498,86.001053 
z"/>
<path fill="#EFEFEF" opacity="1.000000" stroke="none" 
	d="
M194.654358,78.002380 
	C194.981979,78.572174 194.954071,79.138962 194.732544,79.915634 
	C193.876999,79.792343 193.215073,79.459175 192.553146,79.126007 
	C193.135040,78.750458 193.716934,78.374916 194.654358,78.002380 
z"/>
<path fill="#B8B8B8" opacity="1.000000" stroke="none" 
	d="
M89.174675,150.267975 
	C89.856750,149.828018 90.706947,149.611755 91.867584,149.540710 
	C91.232941,149.954514 90.287865,150.223083 89.174675,150.267975 
z"/>
<path fill="#E1E1E1" opacity="1.000000" stroke="none" 
	d="
M202.050125,79.208466 
	C201.050644,79.261383 200.041794,78.990952 198.831116,78.464798 
	C199.766464,78.434425 200.903595,78.659767 202.050125,79.208466 
z"/>
<path fill="#EDEDED" opacity="1.000000" stroke="none" 
	d="
M162.925781,80.118164 
	C163.051056,80.964363 162.832825,81.815010 162.328247,82.839157 
	C162.222031,82.049301 162.402145,81.085945 162.925781,80.118164 
z"/>
<path fill="#101010" opacity="1.000000" stroke="none" 
	d="
M96.796371,31.205954 
	C97.741280,31.056187 98.487045,31.112312 99.232819,31.168436 
	C99.293617,31.426046 99.354416,31.683655 99.415222,31.941265 
	C98.558174,32.292690 97.701126,32.644115 96.513718,33.000095 
	C96.321312,32.473713 96.459282,31.942780 96.796371,31.205954 
z"/>
<path fill="#EDEDED" opacity="1.000000" stroke="none" 
	d="
M164.729980,76.005653 
	C164.947739,76.575562 164.820053,77.142700 164.445480,77.880272 
	C163.638535,77.672897 163.078461,77.295097 162.518387,76.917290 
	C163.140427,76.612488 163.762482,76.307686 164.729980,76.005653 
z"/>
<path fill="#C4C4C4" opacity="1.000000" stroke="none" 
	d="
M218.935486,60.038010 
	C218.659805,59.274994 218.649231,58.404903 218.844528,57.271118 
	C219.100464,57.981930 219.150543,58.956432 218.935486,60.038010 
z"/>
<path fill="#101010" opacity="1.000000" stroke="none" 
	d="
M132.750824,75.219788 
	C132.889862,75.966621 132.785492,76.935295 132.360016,77.951782 
	C132.195099,77.146942 132.351257,76.294289 132.750824,75.219788 
z"/>
<path fill="#F0F0F0" opacity="1.000000" stroke="none" 
	d="
M85.486053,60.989792 
	C85.733505,61.555470 85.655434,62.123631 85.340317,62.858940 
	C84.557213,62.756878 84.011147,62.487663 83.465088,62.218445 
	C84.030228,61.809723 84.595375,61.401001 85.486053,60.989792 
z"/>
<path fill="#C4C4C4" opacity="1.000000" stroke="none" 
	d="
M221.670578,33.040726 
	C221.452087,32.230934 221.526001,31.358852 221.843536,30.249563 
	C222.045776,31.001051 222.004379,31.989746 221.670578,33.040726 
z"/>
<path fill="#F0F0F0" opacity="1.000000" stroke="none" 
	d="
M87.853760,29.861389 
	C87.501198,29.267033 87.592094,28.716202 87.879486,28.074257 
	C88.799286,28.331818 89.522591,28.680496 90.245888,29.029175 
	C89.596329,29.321087 88.946777,29.612999 87.853760,29.861389 
z"/>
<path fill="#101010" opacity="1.000000" stroke="none" 
	d="
M134.621872,70.120605 
	C135.396759,70.494888 135.924713,71.038040 136.452682,71.581192 
	C135.817810,71.791420 135.182922,72.001640 134.294495,72.114029 
	C134.152283,71.440628 134.263611,70.865044 134.621872,70.120605 
z"/>
<path fill="#C6C6C6" opacity="1.000000" stroke="none" 
	d="
M158.803253,134.721176 
	C158.136902,135.130859 157.280548,135.297485 156.198303,135.315857 
	C156.852707,134.937775 157.732971,134.707947 158.803253,134.721176 
z"/>
<path fill="#EDEDED" opacity="1.000000" stroke="none" 
	d="
M106.832626,94.035843 
	C106.962227,94.901459 106.766586,95.783279 106.321625,96.901199 
	C106.217331,96.108887 106.362358,95.080467 106.832626,94.035843 
z"/>
<path fill="#EDEDED" opacity="1.000000" stroke="none" 
	d="
M173.547913,55.993500 
	C173.678619,56.521641 173.487503,57.055099 173.091660,57.797626 
	C172.393951,57.696396 171.900955,57.386093 171.407974,57.075794 
	C172.014008,56.716801 172.620056,56.357811 173.547913,55.993500 
z"/>
<path fill="#EDEDED" opacity="1.000000" stroke="none" 
	d="
M97.125305,95.158432 
	C97.080933,94.282326 97.196907,93.654274 97.566284,92.824478 
	C97.641685,93.550644 97.463676,94.478577 97.125305,95.158432 
z"/>
<path fill="#F0F0F0" opacity="1.000000" stroke="none" 
	d="
M63.447948,97.012169 
	C63.235596,96.437630 63.319714,95.865036 63.647530,95.129608 
	C64.370697,95.466934 64.850174,95.967102 65.329651,96.467270 
	C64.801239,96.649551 64.272827,96.831833 63.447948,97.012169 
z"/>
<path fill="#F0F0F0" opacity="1.000000" stroke="none" 
	d="
M67.414436,86.016251 
	C67.207634,85.438904 67.300323,84.869850 67.638565,84.132614 
	C68.363876,84.469673 68.843620,84.974922 69.323364,85.480164 
	C68.786888,85.661621 68.250404,85.843079 67.414436,86.016251 
z"/>
<path fill="#ECECEC" opacity="1.000000" stroke="none" 
	d="
M120.267136,16.817600 
	C119.520813,16.490221 119.001122,15.992896 118.450348,15.225780 
	C119.110764,15.519876 119.802261,16.083765 120.267136,16.817600 
z"/>
<path fill="#F0F0F0" opacity="1.000000" stroke="none" 
	d="
M93.295418,39.160965 
	C93.410789,39.968109 93.231133,40.615547 92.840240,41.530846 
	C92.063431,40.681297 91.497841,39.563885 90.932251,38.446476 
	C91.104233,38.261501 91.276215,38.076530 91.448204,37.891556 
	C91.965599,38.261456 92.482994,38.631351 93.295418,39.160965 
z"/>
<path fill="#EDEDED" opacity="1.000000" stroke="none" 
	d="
M149.016891,93.872345 
	C148.834396,93.318192 148.987427,92.771820 149.366943,92.049622 
	C149.513092,92.542580 149.432770,93.211349 149.016891,93.872345 
z"/>
<path fill="#B8B8B8" opacity="1.000000" stroke="none" 
	d="
M81.086327,151.776764 
	C80.545723,151.613159 80.080017,151.243866 79.614311,150.874573 
	C80.042419,150.808624 80.470528,150.742676 80.948700,150.920624 
	C80.998756,151.164505 81.161232,151.571075 81.086327,151.776764 
z"/>
<path fill="#E1E1E1" opacity="1.000000" stroke="none" 
	d="
M175.506271,86.007286 
	C175.697525,86.540329 175.610657,87.110741 175.270844,87.842720 
	C175.087982,87.351082 175.158051,86.697861 175.506271,86.007286 
z"/>
<path fill="#D4D4D4" opacity="1.000000" stroke="none" 
	d="
M183.860611,89.960739 
	C183.644104,89.295349 183.755447,88.500633 184.098038,87.495010 
	C184.282333,88.133217 184.235397,88.982323 183.860611,89.960739 
z"/>
<path fill="#F0F0F0" opacity="1.000000" stroke="none" 
	d="
M70.347015,90.025505 
	C70.685051,90.549919 70.824188,91.241058 70.963326,91.932205 
	C70.749313,91.968414 70.535301,92.004623 70.321297,92.040833 
	C70.263573,91.424637 70.205849,90.808434 70.347015,90.025505 
z"/>
<path fill="#E4E4E4" opacity="1.000000" stroke="none" 
	d="
M134.948212,154.792786 
	C134.533401,155.146332 134.081711,155.200882 133.313080,155.112946 
	C133.247238,154.466370 133.498352,153.962296 133.749481,153.458206 
	C134.136780,153.803391 134.524063,154.148590 134.948212,154.792786 
z"/>
<path fill="#E1E1E1" opacity="1.000000" stroke="none" 
	d="
M139.137619,145.300232 
	C139.534271,144.883926 140.045837,144.682587 140.814606,144.609253 
	C140.465378,144.996567 139.858948,145.255890 139.137619,145.300232 
z"/>
<path fill="#EFEFEF" opacity="1.000000" stroke="none" 
	d="
M193.612671,98.022804 
	C194.002991,98.569351 194.026794,99.194229 193.864059,99.988846 
	C193.533737,99.472763 193.389954,98.786949 193.612671,98.022804 
z"/>
<path fill="#E4E4E4" opacity="1.000000" stroke="none" 
	d="
M138.991348,155.356842 
	C138.466110,155.665298 137.892242,155.689758 137.120621,155.496918 
	C137.596146,155.210693 138.269440,155.141785 138.991348,155.356842 
z"/>
<path fill="#EFEFEF" opacity="1.000000" stroke="none" 
	d="
M186.630890,107.344093 
	C186.278366,107.163147 185.988358,106.800682 185.922882,106.401398 
	C185.895355,106.233612 186.342621,105.987946 186.574066,105.777679 
	C186.644073,106.234352 186.714096,106.691025 186.630890,107.344093 
z"/>
<path fill="#F0F0F0" opacity="1.000000" stroke="none" 
	d="
M83.920723,67.902443 
	C83.920723,67.902443 83.546692,68.071808 83.341522,68.064682 
	C83.204201,67.428909 83.272064,66.800270 83.560837,66.291695 
	C83.808846,66.666183 83.835945,66.920609 83.934662,67.560776 
	C84.006287,67.946533 83.920723,67.902443 83.920723,67.902443 
z"/>
<path fill="#101010" opacity="1.000000" stroke="none" 
	d="
M138.021545,61.301655 
	C138.615387,61.327530 139.086212,61.654415 139.557053,61.981293 
	C139.079361,62.278576 138.601669,62.575863 137.800873,62.853241 
	C137.618011,62.423107 137.758286,62.012882 138.021545,61.301655 
z"/>
<path fill="#F0F0F0" opacity="1.000000" stroke="none" 
	d="
M76.390686,78.462212 
	C75.944801,78.346878 75.674469,78.064163 75.404137,77.781448 
	C75.521187,77.669617 75.638229,77.557785 75.755280,77.445953 
	C76.025597,77.728912 76.295921,78.011871 76.390686,78.462212 
z"/>
<path fill="#F0F0F0" opacity="1.000000" stroke="none" 
	d="
M82.598511,59.045471 
	C82.206459,59.284569 81.816597,59.282772 81.428917,59.252804 
	C81.418091,59.251961 81.430565,58.949673 81.432175,58.787949 
	C81.821785,58.792183 82.211395,58.796417 82.598511,59.045471 
z"/>
<path fill="#C4C4C4" opacity="1.000000" stroke="none" 
	d="
M216.858597,79.065872 
	C216.633652,78.563995 216.647491,77.991676 216.887848,77.217979 
	C217.108704,77.676208 217.103043,78.335823 216.858597,79.065872 
z"/>
<path fill="#131313" opacity="1.000000" stroke="none" 
	d="
M263.915161,15.142464 
	C264.139038,15.692671 264.042938,16.303705 263.700073,16.961740 
	C263.500580,16.406925 263.547882,15.805108 263.915161,15.142464 
z"/>
<path fill="#F0F0F0" opacity="1.000000" stroke="none" 
	d="
M87.998337,37.001568 
	C88.505005,37.304626 89.013344,37.606117 89.521675,37.907600 
	C89.340477,38.116142 89.159279,38.324684 88.978088,38.533226 
	C88.675621,38.210323 88.373161,37.887417 88.036911,37.280586 
	C88.003128,36.996662 88.000000,37.000000 87.998337,37.001568 
z"/>
<path fill="#D4D4D4" opacity="1.000000" stroke="none" 
	d="
M106.592545,29.950008 
	C106.418655,29.255226 106.605118,28.462500 107.034698,27.467400 
	C107.169510,28.127373 107.061203,28.989719 106.592545,29.950008 
z"/>
<path fill="#131313" opacity="1.000000" stroke="none" 
	d="
M269.126465,25.782108 
	C268.979614,25.347126 269.032959,24.718853 269.344666,24.041479 
	C269.510895,24.524527 269.418793,25.056671 269.126465,25.782108 
z"/>
<path fill="#EDEDED" opacity="1.000000" stroke="none" 
	d="
M157.990509,81.807724 
	C157.649292,81.637749 157.382751,81.269653 157.251709,80.858383 
	C157.225937,80.777496 157.723373,80.529915 157.979507,80.359207 
	C158.023880,80.770973 158.068253,81.182739 157.990509,81.807724 
z"/>
<path fill="#141414" opacity="1.000000" stroke="none" 
	d="
M148.009399,77.682991 
	C147.724350,77.950287 147.255142,77.975975 146.433563,78.001884 
	C146.662537,77.815193 147.243912,77.628288 148.009399,77.682991 
z"/>
<path fill="#EFEFEF" opacity="1.000000" stroke="none" 
	d="
M187.597473,103.269279 
	C187.442429,103.145126 187.420746,102.930557 187.399048,102.715988 
	C187.509644,102.870277 187.620224,103.024567 187.597473,103.269279 
z"/>
<path fill="#131313" opacity="1.000000" stroke="none" 
	d="
M110.439468,56.195686 
	C110.100433,55.874722 110.052643,55.371712 110.000183,54.489662 
	C110.240578,54.744965 110.485649,55.379299 110.439468,56.195686 
z"/>
<path fill="#F0F0F0" opacity="1.000000" stroke="none" 
	d="
M78.552124,65.468864 
	C78.585625,65.524765 78.518631,65.412964 78.552124,65.468864 
z"/>
<path fill="#D4D4D4" opacity="1.000000" stroke="none" 
	d="
M183.453812,100.518005 
	C183.431274,100.478004 183.476349,100.557999 183.453812,100.518005 
z"/>
<path fill="#EDEDED" opacity="1.000000" stroke="none" 
	d="
M167.446045,65.540291 
	C167.409927,65.480743 167.482162,65.599838 167.446045,65.540291 
z"/>
<path fill="#E1E1E1" opacity="1.000000" stroke="none" 
	d="
M228.458282,37.528877 
	C228.428238,37.475548 228.488312,37.582207 228.458282,37.528877 
z"/>
<path fill="#EFEFEF" opacity="1.000000" stroke="none" 
	d="
M196.553162,111.462204 
	C196.589493,111.521667 196.516815,111.402748 196.553162,111.462204 
z"/>
<path fill="#EFEFEF" opacity="1.000000" stroke="none" 
	d="
M189.452835,107.527977 
	C189.422226,107.475037 189.483444,107.580917 189.452835,107.527977 
z"/>
<path fill="#EFEFEF" opacity="1.000000" stroke="none" 
	d="
M189.530365,104.549370 
	C189.476929,104.581444 189.583786,104.517296 189.530365,104.549370 
z"/>
<path fill="#F0F0F0" opacity="1.000000" stroke="none" 
	d="
M73.546951,83.467255 
	C73.578484,83.520844 73.515419,83.413673 73.546951,83.467255 
z"/>
<path fill="#F0F0F0" opacity="1.000000" stroke="none" 
	d="
M78.553955,75.465744 
	C78.589363,75.523819 78.518555,75.407669 78.553955,75.465744 
z"/>
<path fill="#EDEDED" opacity="1.000000" stroke="none" 
	d="
M111.545959,75.472038 
	C111.576157,75.524422 111.515770,75.419655 111.545959,75.472038 
z"/>
<path fill="#EDEDED" opacity="1.000000" stroke="none" 
	d="
M154.530609,76.550339 
	C154.477463,76.582008 154.583771,76.518677 154.530609,76.550339 
z"/>
<path fill="#EDEDED" opacity="1.000000" stroke="none" 
	d="
M113.467560,77.453659 
	C113.519608,77.423561 113.415504,77.483765 113.467560,77.453659 
z"/>
<path fill="#EDEDED" opacity="1.000000" stroke="none" 
	d="
M155.453583,78.528885 
	C155.423569,78.476585 155.483612,78.581184 155.453583,78.528885 
z"/>
<path fill="#F0F0F0" opacity="1.000000" stroke="none" 
	d="
M71.532425,83.547836 
	C71.478249,83.579895 71.586594,83.515785 71.532425,83.547836 
z"/>
<path fill="#EDEDED" opacity="1.000000" stroke="none" 
	d="
M109.442581,84.052170 
	C109.666206,83.966637 109.637558,84.031219 109.673805,84.049866 
	C109.546356,84.091576 109.382660,84.114639 109.442581,84.052170 
z"/>
<path fill="#555555" opacity="1.000000" stroke="none" 
	d="
M211.298508,132.587616 
	C210.316666,132.145157 209.731064,131.681625 208.141708,130.423569 
	C214.299759,130.423569 219.286026,130.423569 224.272278,130.423569 
	C224.309036,130.731522 224.345795,131.039474 224.382553,131.347412 
	C220.153290,131.753784 215.924011,132.160156 211.298508,132.587616 
z"/>
<path fill="#B8B8B8" opacity="1.000000" stroke="none" 
	d="
M193.359344,132.984314 
	C192.988785,132.891449 192.979248,132.516968 192.982498,132.329681 
	C193.898529,132.142410 194.811310,132.142410 195.724091,132.142410 
	C195.736328,132.331375 195.748550,132.520325 195.760773,132.709290 
	C195.083832,132.831924 194.406876,132.954559 193.359344,132.984314 
z"/>
<path fill="#C0C0C0" opacity="1.000000" stroke="none" 
	d="
M57.870697,63.834129 
	C58.020786,63.796478 58.155281,63.732208 58.289780,63.667934 
	C58.228569,63.780170 58.167358,63.892410 57.964073,63.880047 
	C57.821995,63.755447 57.855103,63.807510 57.870697,63.834129 
z"/>
<path fill="#E7E7E7" opacity="1.000000" stroke="none" 
	d="
M237.983231,73.997589 
	C239.373779,69.785339 240.764343,65.573082 242.197601,61.231487 
	C243.788208,61.138710 245.229034,61.054665 247.537994,60.919983 
	C245.754227,66.019608 244.157455,70.584671 241.876740,75.135757 
	C240.122955,74.747063 239.053085,74.372322 237.983231,73.997589 
z"/>
<path fill="#FCFCFC" opacity="1.000000" stroke="none" 
	d="
M236.336838,91.794739 
	C235.384766,92.767044 234.770721,93.654282 233.931107,94.183968 
	C233.117096,94.697487 232.071320,94.843620 230.909088,94.843651 
	C231.670700,91.566475 232.650558,88.596756 234.149994,85.363464 
	C235.789001,85.735107 236.908386,86.370338 238.027771,87.005562 
	C237.543915,88.521454 237.060043,90.037346 236.336838,91.794739 
z"/>
<path fill="#FCFCFC" opacity="1.000000" stroke="none" 
	d="
M237.773956,74.301193 
	C239.053085,74.372322 240.122955,74.747063 241.588913,75.309235 
	C241.665161,76.759338 241.345306,78.022011 240.495483,79.692200 
	C238.208420,80.990097 238.356110,85.361206 234.784134,82.935150 
	C235.710983,80.158363 236.637817,77.381584 237.773956,74.301193 
z"/>
<path fill="#E7E7E7" opacity="1.000000" stroke="none" 
	d="
M234.545029,83.112816 
	C238.356110,85.361206 238.208420,80.990097 240.277740,80.028503 
	C239.905182,82.151497 239.220413,84.345688 238.281723,86.772720 
	C236.908386,86.370338 235.789001,85.735107 234.339783,85.050652 
	C234.108612,84.431107 234.207260,83.860794 234.545029,83.112816 
z"/>
<path fill="#CBCBCB" opacity="1.000000" stroke="none" 
	d="
M187.542953,41.632538 
	C188.053528,40.652222 188.396912,40.003490 188.890747,39.070549 
	C190.720139,44.211128 187.485245,52.467125 182.909317,52.948223 
	C184.498108,49.040997 185.936935,45.502560 187.542953,41.632538 
z"/>
<path fill="#E1E1E1" opacity="1.000000" stroke="none" 
	d="
M176.883759,69.951591 
	C178.098938,66.677711 178.376877,62.826374 183.075745,61.402946 
	C182.222931,64.437988 181.370102,67.473038 179.933319,70.633759 
	C178.527496,70.490158 177.705627,70.220879 176.883759,69.951591 
M180.599716,64.517014 
	C180.599716,64.517014 180.477997,64.605042 180.599716,64.517014 
z"/>
<path fill="#FCFCFC" opacity="1.000000" stroke="none" 
	d="
M176.641922,70.193909 
	C177.705627,70.220879 178.527496,70.490158 179.659073,70.874466 
	C179.956665,71.443306 179.944534,71.897125 179.416656,72.767975 
	C178.839874,74.045982 178.778839,74.906960 178.717789,75.767937 
	C178.717789,75.767937 178.691864,76.014267 178.643646,76.128342 
	C177.593750,75.851646 176.592056,75.460884 175.194183,75.005722 
	C175.332031,73.439629 175.866058,71.937927 176.641922,70.193909 
z"/>
<path fill="#E1E1E1" opacity="1.000000" stroke="none" 
	d="
M178.917877,75.535843 
	C178.778839,74.906960 178.839874,74.045982 179.244751,73.065155 
	C179.431717,73.731461 179.274841,74.517601 178.917877,75.535843 
z"/>
<path fill="#131313" opacity="1.000000" stroke="none" 
	d="
M94.220093,78.959259 
	C94.004166,78.438614 94.110397,77.881920 94.385132,77.091125 
	C94.549835,77.545746 94.546036,78.234489 94.220093,78.959259 
z"/>
<path fill="#101010" opacity="1.000000" stroke="none" 
	d="
M83.958298,67.943840 
	C84.657082,68.007896 85.403847,68.074638 86.150620,68.141388 
	C86.119331,68.349724 86.088036,68.558060 86.056747,68.766396 
	C85.457230,68.643654 84.857704,68.520912 84.089455,68.150314 
	C83.920723,67.902443 84.006287,67.946533 83.958298,67.943840 
z"/>
<path fill="#101010" opacity="1.000000" stroke="none" 
	d="
M90.468468,58.451546 
	C90.521622,58.420242 90.415314,58.482845 90.468468,58.451546 
z"/>
<path fill="#FCFCFC" opacity="1.000000" stroke="none" 
	d="
M100.034439,86.856483 
	C99.877953,86.886612 99.826797,86.694077 99.825920,86.501328 
	C99.825462,86.400505 99.913338,86.299286 100.081573,86.160812 
	C100.188103,86.293495 100.174370,86.463615 100.034439,86.856483 
z"/>
<path fill="#131313" opacity="1.000000" stroke="none" 
	d="
M97.450760,86.532745 
	C97.418816,86.478462 97.482712,86.587021 97.450760,86.532745 
z"/>
<path fill="#101010" opacity="1.000000" stroke="none" 
	d="
M131.876190,91.277512 
	C131.777206,91.746025 131.638260,91.991547 131.499298,92.237068 
	C131.360825,91.991814 131.059082,91.681618 131.124390,91.517418 
	C131.209778,91.302719 131.585449,91.203461 131.876190,91.277512 
z"/>
<path fill="#101010" opacity="1.000000" stroke="none" 
	d="
M137.993896,76.995300 
	C138.088196,76.961922 138.182480,76.928535 138.138397,76.947578 
	C138.000000,77.000000 137.993896,76.995300 137.993896,76.995300 
z"/>
<path fill="#101010" opacity="1.000000" stroke="none" 
	d="
M138.002441,77.003143 
	C137.911148,77.039757 137.817383,77.073219 137.858765,77.050995 
	C137.993896,76.995300 138.000000,77.000000 138.002441,77.003143 
z"/>
<path fill="#FCFCFC" opacity="1.000000" stroke="none" 
	d="
M231.554001,98.468529 
	C231.593567,98.530708 231.514435,98.406349 231.554001,98.468529 
z"/>
<path fill="#FCFCFC" opacity="1.000000" stroke="none" 
	d="
M180.538849,64.561028 
	C180.477997,64.605042 180.599716,64.517014 180.538849,64.561028 
z"/>
</svg>