<svg version="1.1" id="Layer_1" xmlns="http://www.w3.org/2000/svg" xmlns:xlink="http://www.w3.org/1999/xlink" x="0px" y="0px"
	 width="100%" viewBox="0 0 512 250" enable-background="new 0 0 512 250" xml:space="preserve">
<path fill="#000000" opacity="1.000000" stroke="none" 
	d="
M322.000000,251.000000 
	C214.666672,251.000000 107.833336,251.000000 1.000000,251.000000 
	C1.000000,167.666672 1.000000,84.333336 1.000000,1.000000 
	C171.666672,1.000000 342.333344,1.000000 513.000000,1.000000 
	C513.000000,84.333336 513.000000,167.666672 513.000000,251.000000 
	C449.500000,251.000000 386.000000,251.000000 322.000000,251.000000 
M189.157791,194.533722 
	C189.157791,194.533722 189.208893,194.155960 190.111511,194.101639 
	C193.276093,194.015961 196.463776,194.145996 199.601593,193.810287 
	C223.356934,191.268707 247.092163,188.536880 270.853821,186.057526 
	C298.095520,183.215042 325.360138,180.592865 352.609314,177.821167 
	C357.484406,177.325287 362.332886,176.568039 366.904968,175.969284 
	C366.904968,173.146637 366.904968,171.013855 366.904968,168.640701 
	C291.583252,168.640701 216.490768,168.640701 141.210297,168.640701 
	C141.210297,171.116592 141.210297,173.365891 141.210297,175.471252 
	C199.374969,175.471252 257.358948,175.471252 307.880737,175.471252 
	C257.174103,180.427429 199.085526,186.105148 140.740768,191.807892 
	C140.912766,194.925262 141.044754,197.317337 141.181732,199.799988 
	C201.279724,203.136398 260.990906,206.451340 320.771698,209.770126 
	C320.771698,206.898788 320.771698,204.635132 320.771698,202.107574 
	C276.701813,199.693802 232.864334,197.292770 189.157791,194.533722 
M175.718903,105.135239 
	C175.651779,106.561966 175.798599,108.037895 175.483612,109.407631 
	C173.014755,120.143616 170.457397,130.859253 167.839432,141.953629 
	C171.414383,143.251038 174.699173,144.443130 178.188080,145.709320 
	C188.276810,117.876205 198.172913,90.574486 208.139648,63.077904 
	C205.400681,62.012310 203.135132,61.130894 200.653473,60.165401 
	C195.946014,73.531227 191.313416,86.684456 186.680832,99.837692 
	C186.323792,99.732590 185.966766,99.627487 185.609741,99.522385 
	C188.358658,87.740791 191.107590,75.959190 193.902908,63.978756 
	C190.269928,62.662025 186.959198,61.462090 183.598923,60.244198 
	C173.568161,87.887993 163.696991,115.091957 153.667786,142.731445 
	C156.222519,143.760468 158.518768,144.685364 161.247314,145.784393 
	C165.969391,132.051254 170.515411,118.830147 175.718903,105.135239 
M360.975067,86.578545 
	C363.740295,78.866722 366.505493,71.154892 369.402588,63.075325 
	C366.623993,62.048290 364.246033,61.169346 361.712067,60.232735 
	C351.678558,87.877937 341.765656,115.190857 331.738251,142.819275 
	C334.521942,143.883331 336.908569,144.795624 339.511475,145.790588 
	C343.785187,133.807587 347.947662,122.206627 352.050537,110.584625 
	C353.111481,107.579353 354.562317,105.709038 358.082062,107.774994 
	C353.875427,119.356689 349.675873,130.918930 345.361176,142.798080 
	C347.814362,143.756332 350.197449,144.687195 353.027283,145.792572 
	C363.090790,118.071556 373.036438,90.675209 382.969086,63.314629 
	C375.437653,59.911106 375.451569,59.916145 372.989136,66.713959 
	C369.511810,76.313385 365.867706,85.855934 362.602386,95.526619 
	C361.524811,98.717995 360.145935,99.930862 356.645447,98.522430 
	C358.056061,94.725555 359.426300,91.037308 360.975067,86.578545 
M296.143341,81.605263 
	C287.257172,101.924225 278.371002,122.243195 269.348206,142.874512 
	C271.896545,143.800674 274.305756,144.676285 276.902832,145.620178 
	C277.481781,144.443787 277.948761,143.603500 278.320526,142.722992 
	C282.927429,131.811050 287.487000,120.878876 292.162140,109.996338 
	C292.707275,108.727402 293.871521,107.724449 294.748749,106.598175 
	C295.120819,106.860077 295.492920,107.121986 295.865021,107.383888 
	C292.423920,119.120369 288.982849,130.856842 285.450897,142.903305 
	C288.184174,143.907532 290.574310,144.785660 293.280365,145.779861 
	C301.079407,118.467102 308.783447,91.486977 316.547241,64.297539 
	C312.577454,62.824966 309.122772,61.543484 305.576691,60.228085 
	C302.481506,67.412956 299.553223,74.210495 296.143341,81.605263 
M229.460068,82.020050 
	C230.726440,81.983551 233.061234,82.126717 233.102020,81.884132 
	C233.987915,76.615768 235.583069,71.199097 235.018860,66.031837 
	C234.484634,61.139217 228.860855,59.209324 223.985062,60.739624 
	C218.938980,62.323372 216.777512,66.438927 215.140594,70.798897 
	C209.986313,84.527512 205.029617,98.330551 200.033447,112.118187 
	C197.118103,120.163475 194.140152,128.190491 191.465439,136.316284 
	C190.456161,139.382477 190.431442,142.770737 193.689438,144.798416 
	C196.847107,146.763672 199.966537,145.849686 202.158264,143.205109 
	C204.898804,139.898300 207.758972,137.971664 212.120239,140.497925 
	C217.023758,126.938179 221.762711,113.833488 226.566498,100.549500 
	C223.724274,99.521606 221.341446,98.659866 218.892700,97.774269 
	C214.489655,109.790359 210.428116,121.267982 206.000854,132.602768 
	C205.180450,134.703171 202.885300,136.227554 201.270798,138.017776 
	C200.780762,137.643906 200.290741,137.270020 199.800705,136.896149 
	C208.675980,113.950256 215.838806,90.346832 226.250198,67.936699 
	C229.583481,72.536682 225.762039,76.089615 225.373795,80.347099 
	C226.383743,80.808929 227.545486,81.340172 229.460068,82.020050 
M347.101929,65.753510 
	C343.355438,61.722702 347.492950,57.973053 347.779114,53.926483 
	C345.300781,52.989803 342.999969,52.120205 340.831940,51.300804 
	C339.117554,54.550495 338.216095,59.301319 335.653687,60.499229 
	C329.862518,63.206566 327.579407,67.882820 326.256409,73.100761 
	C324.640411,79.474197 323.828064,86.085106 323.094910,92.641045 
	C321.878235,103.520401 321.170013,114.457108 319.922699,125.332382 
	C319.103912,132.471481 317.105438,135.889877 312.393219,138.314468 
	C313.514282,133.408585 314.419922,129.445419 315.348846,125.380440 
	C313.079498,124.565437 310.798065,123.746094 307.256226,122.474083 
	C306.485413,128.128525 304.382629,133.579453 305.483917,138.279663 
	C306.585907,142.982956 305.886536,146.654724 304.018494,150.970016 
	C306.642487,151.984192 309.035156,152.908966 311.074341,153.697113 
	C312.928192,150.780869 314.056641,146.643188 316.463776,145.670715 
	C323.166901,142.962692 325.811279,137.613480 326.811066,131.579819 
	C328.674988,120.330917 329.578430,108.925179 330.991028,97.598366 
	C331.910675,90.224052 332.784424,82.828278 334.173553,75.536369 
	C334.694427,72.802208 336.615112,70.334709 337.897614,67.745636 
	C338.678711,68.028122 339.459808,68.310608 340.240936,68.593086 
	C339.311157,72.501137 338.381378,76.409187 337.395020,80.555069 
	C339.692261,81.380791 342.105713,82.248291 345.856079,83.596329 
	C346.431824,77.405815 346.939606,71.946304 347.101929,65.753510 
M265.348572,131.934265 
	C266.168945,129.711578 266.989349,127.488907 267.909454,124.996071 
	C265.181244,124.110153 262.880951,123.363182 260.451721,122.574341 
	C258.114075,127.965721 255.872681,133.135193 253.631271,138.304657 
	C253.000443,138.166702 252.369614,138.028748 251.738785,137.890793 
	C251.738785,136.368637 251.322449,134.699142 251.801147,133.346375 
	C259.098450,112.724998 266.484650,92.134796 273.960907,71.577606 
	C274.477234,70.157852 275.868286,69.056221 276.852570,67.806648 
	C277.397644,68.061813 277.942719,68.316978 278.487762,68.572136 
	C277.586578,72.573555 276.685394,76.574966 275.779938,80.595375 
	C278.084229,81.419373 280.358002,82.232452 283.544922,83.372055 
	C284.417480,78.677231 285.457581,74.402107 285.949493,70.064819 
	C286.449066,65.660088 284.609833,62.402306 280.169464,60.817616 
	C275.582642,59.180668 271.878723,60.660278 269.212860,64.257736 
	C267.178711,67.002731 265.516754,70.157059 264.318085,73.364319 
	C259.427643,86.449677 254.699753,99.597595 250.073959,112.779312 
	C247.678131,119.606514 245.381760,126.487762 243.491196,133.466705 
	C242.124512,138.511826 244.426437,143.183380 248.325714,144.870667 
	C253.020691,146.902267 257.918152,145.613464 260.945129,141.057266 
	C262.656311,138.481644 263.689178,135.455399 265.348572,131.934265 
M235.704697,128.706253 
	C233.139267,127.705528 230.573837,126.704796 227.585892,125.539253 
	C225.419052,131.418427 223.375977,136.961807 221.259659,142.703888 
	C224.266647,143.748566 226.857773,144.648773 229.663055,145.623383 
	C231.752243,140.149582 233.790680,134.808762 235.704697,128.706253 
z"/>
<path fill="#F3F3F3" opacity="1.000000" stroke="none" 
	d="
M189.026871,194.891739 
	C232.864334,197.292770 276.701813,199.693802 320.771698,202.107574 
	C320.771698,204.635132 320.771698,206.898788 320.771698,209.770126 
	C260.990906,206.451340 201.279724,203.136398 141.181732,199.799988 
	C141.044754,197.317337 140.912766,194.925262 140.740768,191.807892 
	C199.085526,186.105148 257.174103,180.427429 307.880737,175.471252 
	C257.358948,175.471252 199.374969,175.471252 141.210297,175.471252 
	C141.210297,173.365891 141.210297,171.116592 141.210297,168.640701 
	C216.490768,168.640701 291.583252,168.640701 366.904968,168.640701 
	C366.904968,171.013855 366.904968,173.146637 366.904968,175.969284 
	C362.332886,176.568039 357.484406,177.325287 352.609314,177.821167 
	C325.360138,180.592865 298.095520,183.215042 270.853821,186.057526 
	C247.092163,188.536880 223.356934,191.268707 199.601593,193.810287 
	C196.463776,194.145996 193.276093,194.015961 189.199677,194.088455 
	C183.175842,194.440201 178.063843,194.805115 172.951859,195.170044 
	C172.989273,195.598953 173.026703,196.027863 173.064117,196.456772 
	C178.385040,195.935089 183.705948,195.413422 189.026871,194.891739 
z"/>
<path fill="#F6F6F6" opacity="1.000000" stroke="none" 
	d="
M175.390167,105.372147 
	C170.515411,118.830147 165.969391,132.051254 161.247314,145.784393 
	C158.518768,144.685364 156.222519,143.760468 153.667786,142.731445 
	C163.696991,115.091957 173.568161,87.887993 183.598923,60.244198 
	C186.959198,61.462090 190.269928,62.662025 193.902908,63.978756 
	C191.107590,75.959190 188.358658,87.740791 185.609741,99.522385 
	C185.966766,99.627487 186.323792,99.732590 186.680832,99.837692 
	C191.313416,86.684456 195.946014,73.531227 200.653473,60.165401 
	C203.135132,61.130894 205.400681,62.012310 208.139648,63.077904 
	C198.172913,90.574486 188.276810,117.876205 178.188080,145.709320 
	C174.699173,144.443130 171.414383,143.251038 167.839432,141.953629 
	C170.457397,130.859253 173.014755,120.143616 175.483612,109.407631 
	C175.798599,108.037895 175.651779,106.561966 175.390167,105.372147 
z"/>
<path fill="#F6F6F6" opacity="1.000000" stroke="none" 
	d="
M360.885803,86.963806 
	C359.426300,91.037308 358.056061,94.725555 356.645447,98.522430 
	C360.145935,99.930862 361.524811,98.717995 362.602386,95.526619 
	C365.867706,85.855934 369.511810,76.313385 372.989136,66.713959 
	C375.451569,59.916145 375.437653,59.911106 382.969086,63.314629 
	C373.036438,90.675209 363.090790,118.071556 353.027283,145.792572 
	C350.197449,144.687195 347.814362,143.756332 345.361176,142.798080 
	C349.675873,130.918930 353.875427,119.356689 358.082062,107.774994 
	C354.562317,105.709038 353.111481,107.579353 352.050537,110.584625 
	C347.947662,122.206627 343.785187,133.807587 339.511475,145.790588 
	C336.908569,144.795624 334.521942,143.883331 331.738251,142.819275 
	C341.765656,115.190857 351.678558,87.877937 361.712067,60.232735 
	C364.246033,61.169346 366.623993,62.048290 369.402588,63.075325 
	C366.505493,71.154892 363.740295,78.866722 360.885803,86.963806 
z"/>
<path fill="#F5F5F5" opacity="1.000000" stroke="none" 
	d="
M296.384125,81.306641 
	C299.553223,74.210495 302.481506,67.412956 305.576691,60.228085 
	C309.122772,61.543484 312.577454,62.824966 316.547241,64.297539 
	C308.783447,91.486977 301.079407,118.467102 293.280365,145.779861 
	C290.574310,144.785660 288.184174,143.907532 285.450897,142.903305 
	C288.982849,130.856842 292.423920,119.120369 295.865021,107.383888 
	C295.492920,107.121986 295.120819,106.860077 294.748749,106.598175 
	C293.871521,107.724449 292.707275,108.727402 292.162140,109.996338 
	C287.487000,120.878876 282.927429,131.811050 278.320526,142.722992 
	C277.948761,143.603500 277.481781,144.443787 276.902832,145.620178 
	C274.305756,144.676285 271.896545,143.800674 269.348206,142.874512 
	C278.371002,122.243195 287.257172,101.924225 296.384125,81.306641 
M299.013031,91.588676 
	C298.096252,93.983643 297.179474,96.378609 296.232361,98.852776 
	C299.521271,98.455261 304.935516,85.340714 304.466187,78.688484 
	C302.636078,83.060173 300.996338,86.977196 299.013031,91.588676 
z"/>
<path fill="#F5F5F5" opacity="1.000000" stroke="none" 
	d="
M229.083649,81.945740 
	C227.545486,81.340172 226.383743,80.808929 225.373795,80.347099 
	C225.762039,76.089615 229.583481,72.536682 226.250198,67.936699 
	C215.838806,90.346832 208.675980,113.950256 199.800705,136.896149 
	C200.290741,137.270020 200.780762,137.643906 201.270798,138.017776 
	C202.885300,136.227554 205.180450,134.703171 206.000854,132.602768 
	C210.428116,121.267982 214.489655,109.790359 218.892700,97.774269 
	C221.341446,98.659866 223.724274,99.521606 226.566498,100.549500 
	C221.762711,113.833488 217.023758,126.938179 212.120239,140.497925 
	C207.758972,137.971664 204.898804,139.898300 202.158264,143.205109 
	C199.966537,145.849686 196.847107,146.763672 193.689438,144.798416 
	C190.431442,142.770737 190.456161,139.382477 191.465439,136.316284 
	C194.140152,128.190491 197.118103,120.163475 200.033447,112.118187 
	C205.029617,98.330551 209.986313,84.527512 215.140594,70.798897 
	C216.777512,66.438927 218.938980,62.323372 223.985062,60.739624 
	C228.860855,59.209324 234.484634,61.139217 235.018860,66.031837 
	C235.583069,71.199097 233.987915,76.615768 233.102020,81.884132 
	C233.061234,82.126717 230.726440,81.983551 229.083649,81.945740 
z"/>
<path fill="#F6F6F6" opacity="1.000000" stroke="none" 
	d="
M347.274658,66.120148 
	C346.939606,71.946304 346.431824,77.405815 345.856079,83.596329 
	C342.105713,82.248291 339.692261,81.380791 337.395020,80.555069 
	C338.381378,76.409187 339.311157,72.501137 340.240936,68.593086 
	C339.459808,68.310608 338.678711,68.028122 337.897614,67.745636 
	C336.615112,70.334709 334.694427,72.802208 334.173553,75.536369 
	C332.784424,82.828278 331.910675,90.224052 330.991028,97.598366 
	C329.578430,108.925179 328.674988,120.330917 326.811066,131.579819 
	C325.811279,137.613480 323.166901,142.962692 316.463776,145.670715 
	C314.056641,146.643188 312.928192,150.780869 311.074341,153.697113 
	C309.035156,152.908966 306.642487,151.984192 304.018494,150.970016 
	C305.886536,146.654724 306.585907,142.982956 305.483917,138.279663 
	C304.382629,133.579453 306.485413,128.128525 307.256226,122.474083 
	C310.798065,123.746094 313.079498,124.565437 315.348846,125.380440 
	C314.419922,129.445419 313.514282,133.408585 312.393219,138.314468 
	C317.105438,135.889877 319.103912,132.471481 319.922699,125.332382 
	C321.170013,114.457108 321.878235,103.520401 323.094910,92.641045 
	C323.828064,86.085106 324.640411,79.474197 326.256409,73.100761 
	C327.579407,67.882820 329.862518,63.206566 335.653687,60.499229 
	C338.216095,59.301319 339.117554,54.550495 340.831940,51.300804 
	C342.999969,52.120205 345.300781,52.989803 347.779114,53.926483 
	C347.492950,57.973053 343.355438,61.722702 347.274658,66.120148 
z"/>
<path fill="#F6F6F6" opacity="1.000000" stroke="none" 
	d="
M265.188049,132.283188 
	C263.689178,135.455399 262.656311,138.481644 260.945129,141.057266 
	C257.918152,145.613464 253.020691,146.902267 248.325714,144.870667 
	C244.426437,143.183380 242.124512,138.511826 243.491196,133.466705 
	C245.381760,126.487762 247.678131,119.606514 250.073959,112.779312 
	C254.699753,99.597595 259.427643,86.449677 264.318085,73.364319 
	C265.516754,70.157059 267.178711,67.002731 269.212860,64.257736 
	C271.878723,60.660278 275.582642,59.180668 280.169464,60.817616 
	C284.609833,62.402306 286.449066,65.660088 285.949493,70.064819 
	C285.457581,74.402107 284.417480,78.677231 283.544922,83.372055 
	C280.358002,82.232452 278.084229,81.419373 275.779938,80.595375 
	C276.685394,76.574966 277.586578,72.573555 278.487762,68.572136 
	C277.942719,68.316978 277.397644,68.061813 276.852570,67.806648 
	C275.868286,69.056221 274.477234,70.157852 273.960907,71.577606 
	C266.484650,92.134796 259.098450,112.724998 251.801147,133.346375 
	C251.322449,134.699142 251.738785,136.368637 251.738785,137.890793 
	C252.369614,138.028748 253.000443,138.166702 253.631271,138.304657 
	C255.872681,133.135193 258.114075,127.965721 260.451721,122.574341 
	C262.880951,123.363182 265.181244,124.110153 267.909454,124.996071 
	C266.989349,127.488907 266.168945,129.711578 265.188049,132.283188 
z"/>
<path fill="#F3F3F3" opacity="1.000000" stroke="none" 
	d="
M235.766907,129.087097 
	C233.790680,134.808762 231.752243,140.149582 229.663055,145.623383 
	C226.857773,144.648773 224.266647,143.748566 221.259659,142.703888 
	C223.375977,136.961807 225.419052,131.418427 227.585892,125.539253 
	C230.573837,126.704796 233.139267,127.705528 235.766907,129.087097 
z"/>
<path fill="#ADADAD" opacity="1.000000" stroke="none" 
	d="
M189.092331,194.712738 
	C183.705948,195.413422 178.385040,195.935089 173.064117,196.456772 
	C173.026703,196.027863 172.989273,195.598953 172.951859,195.170044 
	C178.063843,194.805115 183.175842,194.440201 188.748352,194.115616 
	C189.208893,194.155960 189.157791,194.533722 189.092331,194.712738 
z"/>
<path fill="#0A0A0A" opacity="1.000000" stroke="none" 
	d="
M299.184814,91.241440 
	C300.996338,86.977196 302.636078,83.060173 304.466187,78.688484 
	C304.935516,85.340714 299.521271,98.455261 296.232361,98.852776 
	C297.179474,96.378609 298.096252,93.983643 299.184814,91.241440 
z"/>
</svg>