<svg width="44" height="43" viewBox="0 0 44 43" fill="none" xmlns="http://www.w3.org/2000/svg">
<ellipse cx="22" cy="21.5" rx="22" ry="21.5" fill="#D0D0D0"/>
<path d="M9 13H34V30H9V13ZM21.5 17.25C22.6051 17.25 23.6649 17.6978 24.4463 18.4948C25.2277 19.2918 25.6667 20.3728 25.6667 21.5C25.6667 22.6272 25.2277 23.7082 24.4463 24.5052C23.6649 25.3022 22.6051 25.75 21.5 25.75C20.3949 25.75 19.3351 25.3022 18.5537 24.5052C17.7723 23.7082 17.3333 22.6272 17.3333 21.5C17.3333 20.3728 17.7723 19.2918 18.5537 18.4948C19.3351 17.6978 20.3949 17.25 21.5 17.25ZM14.5556 15.8333C14.5556 16.5848 14.2629 17.3054 13.742 17.8368C13.221 18.3682 12.5145 18.6667 11.7778 18.6667V24.3333C12.5145 24.3333 13.221 24.6318 13.742 25.1632C14.2629 25.6946 14.5556 26.4152 14.5556 27.1667H28.4444C28.4444 26.4152 28.7371 25.6946 29.258 25.1632C29.779 24.6318 30.4855 24.3333 31.2222 24.3333V18.6667C30.4855 18.6667 29.779 18.3682 29.258 17.8368C28.7371 17.3054 28.4444 16.5848 28.4444 15.8333H14.5556Z" fill="#292929"/>
<ellipse cx="31.5" cy="30" rx="9.5" ry="9" fill="#D0D0D0"/>
<path d="M30 33H32V28.8L33.6 30.4L35 29L31 25L27 29L28.4 30.4L30 28.8V33ZM31 39C29.6167 39 28.3167 38.7373 27.1 38.212C25.8833 37.6873 24.825 36.975 23.925 36.075C23.025 35.175 22.3127 34.1167 21.788 32.9C21.2627 31.6833 21 30.3833 21 29C21 27.6167 21.2627 26.3167 21.788 25.1C22.3127 23.8833 23.025 22.825 23.925 21.925C24.825 21.025 25.8833 20.3123 27.1 19.787C28.3167 19.2623 29.6167 19 31 19C32.3833 19 33.6833 19.2623 34.9 19.787C36.1167 20.3123 37.175 21.025 38.075 21.925C38.975 22.825 39.6873 23.8833 40.212 25.1C40.7373 26.3167 41 27.6167 41 29C41 30.3833 40.7373 31.6833 40.212 32.9C39.6873 34.1167 38.975 35.175 38.075 36.075C37.175 36.975 36.1167 37.6873 34.9 38.212C33.6833 38.7373 32.3833 39 31 39ZM31 37C33.2333 37 35.125 36.225 36.675 34.675C38.225 33.125 39 31.2333 39 29C39 26.7667 38.225 24.875 36.675 23.325C35.125 21.775 33.2333 21 31 21C28.7667 21 26.875 21.775 25.325 23.325C23.775 24.875 23 26.7667 23 29C23 31.2333 23.775 33.125 25.325 34.675C26.875 36.225 28.7667 37 31 37Z" fill="#292929"/>
</svg>
