<svg width="44" height="43" viewBox="0 0 44 43" fill="none" xmlns="http://www.w3.org/2000/svg">
<ellipse cx="22" cy="21.5" rx="22" ry="21.5" fill="#BDE3C5"/>
<path d="M9 13H34V30H9V13ZM21.5 17.25C22.6051 17.25 23.6649 17.6978 24.4463 18.4948C25.2277 19.2918 25.6667 20.3728 25.6667 21.5C25.6667 22.6272 25.2277 23.7082 24.4463 24.5052C23.6649 25.3022 22.6051 25.75 21.5 25.75C20.3949 25.75 19.3351 25.3022 18.5537 24.5052C17.7723 23.7082 17.3333 22.6272 17.3333 21.5C17.3333 20.3728 17.7723 19.2918 18.5537 18.4948C19.3351 17.6978 20.3949 17.25 21.5 17.25ZM14.5556 15.8333C14.5556 16.5848 14.2629 17.3054 13.742 17.8368C13.221 18.3682 12.5145 18.6667 11.7778 18.6667V24.3333C12.5145 24.3333 13.221 24.6318 13.742 25.1632C14.2629 25.6946 14.5556 26.4152 14.5556 27.1667H28.4444C28.4444 26.4152 28.7371 25.6946 29.258 25.1632C29.779 24.6318 30.4855 24.3333 31.2222 24.3333V18.6667C30.4855 18.6667 29.779 18.3682 29.258 17.8368C28.7371 17.3054 28.4444 16.5848 28.4444 15.8333H14.5556Z" fill="#0FA958"/>
<ellipse cx="31.5" cy="30" rx="9.5" ry="9" fill="#BDE3C5"/>
<path d="M31 33.575C31.1333 33.575 31.2583 33.554 31.375 33.512C31.4917 33.4707 31.6 33.4 31.7 33.3L34.3 30.7C34.4833 30.5167 34.575 30.2833 34.575 30C34.575 29.7167 34.4833 29.4833 34.3 29.3C34.1167 29.1167 33.8833 29.025 33.6 29.025C33.3167 29.025 33.0833 29.1167 32.9 29.3L32 30.2V27C32 26.7167 31.9043 26.479 31.713 26.287C31.521 26.0957 31.2833 26 31 26C30.7167 26 30.4793 26.0957 30.288 26.287C30.096 26.479 30 26.7167 30 27V30.2L29.1 29.3C28.9167 29.1167 28.6833 29.025 28.4 29.025C28.1167 29.025 27.8833 29.1167 27.7 29.3C27.5167 29.4833 27.425 29.7167 27.425 30C27.425 30.2833 27.5167 30.5167 27.7 30.7L30.3 33.3C30.4 33.4 30.5083 33.4707 30.625 33.512C30.7417 33.554 30.8667 33.575 31 33.575V33.575ZM31 40C29.6167 40 28.3167 39.7373 27.1 39.212C25.8833 38.6873 24.825 37.975 23.925 37.075C23.025 36.175 22.3127 35.1167 21.788 33.9C21.2627 32.6833 21 31.3833 21 30C21 28.6167 21.2627 27.3167 21.788 26.1C22.3127 24.8833 23.025 23.825 23.925 22.925C24.825 22.025 25.8833 21.3123 27.1 20.787C28.3167 20.2623 29.6167 20 31 20C32.3833 20 33.6833 20.2623 34.9 20.787C36.1167 21.3123 37.175 22.025 38.075 22.925C38.975 23.825 39.6873 24.8833 40.212 26.1C40.7373 27.3167 41 28.6167 41 30C41 31.3833 40.7373 32.6833 40.212 33.9C39.6873 35.1167 38.975 36.175 38.075 37.075C37.175 37.975 36.1167 38.6873 34.9 39.212C33.6833 39.7373 32.3833 40 31 40ZM31 38C33.2167 38 35.1043 37.221 36.663 35.663C38.221 34.1043 39 32.2167 39 30C39 27.7833 38.221 25.8957 36.663 24.337C35.1043 22.779 33.2167 22 31 22C28.7833 22 26.896 22.779 25.338 24.337C23.7793 25.8957 23 27.7833 23 30C23 32.2167 23.7793 34.1043 25.338 35.663C26.896 37.221 28.7833 38 31 38Z" fill="#0FA958"/>
</svg>
