<svg width="52" height="51" viewBox="0 0 52 51" fill="none" xmlns="http://www.w3.org/2000/svg">
<g filter="url(#filter0_d_7_35)">
<ellipse cx="26" cy="21.5" rx="22" ry="21.5" fill="#D0D0D0"/>
<path d="M13 13H38V30H13V13ZM25.5 17.25C26.6051 17.25 27.6649 17.6978 28.4463 18.4948C29.2277 19.2918 29.6667 20.3728 29.6667 21.5C29.6667 22.6272 29.2277 23.7082 28.4463 24.5052C27.6649 25.3022 26.6051 25.75 25.5 25.75C24.3949 25.75 23.3351 25.3022 22.5537 24.5052C21.7723 23.7082 21.3333 22.6272 21.3333 21.5C21.3333 20.3728 21.7723 19.2918 22.5537 18.4948C23.3351 17.6978 24.3949 17.25 25.5 17.25ZM18.5556 15.8333C18.5556 16.5848 18.2629 17.3054 17.742 17.8368C17.221 18.3682 16.5145 18.6667 15.7778 18.6667V24.3333C16.5145 24.3333 17.221 24.6318 17.742 25.1632C18.2629 25.6946 18.5556 26.4152 18.5556 27.1667H32.4444C32.4444 26.4152 32.7371 25.6946 33.258 25.1632C33.779 24.6318 34.4855 24.3333 35.2222 24.3333V18.6667C34.4855 18.6667 33.779 18.3682 33.258 17.8368C32.7371 17.3054 32.4444 16.5848 32.4444 15.8333H18.5556Z" fill="#292929"/>
<ellipse cx="35.5" cy="30" rx="9.5" ry="9" fill="#D0D0D0"/>
<path d="M34 35H36V30.8L37.6 32.4L39 31L35 27L31 31L32.4 32.4L34 30.8V35ZM35 41C33.6167 41 32.3167 40.7373 31.1 40.212C29.8833 39.6873 28.825 38.975 27.925 38.075C27.025 37.175 26.3127 36.1167 25.788 34.9C25.2627 33.6833 25 32.3833 25 31C25 29.6167 25.2627 28.3167 25.788 27.1C26.3127 25.8833 27.025 24.825 27.925 23.925C28.825 23.025 29.8833 22.3123 31.1 21.787C32.3167 21.2623 33.6167 21 35 21C36.3833 21 37.6833 21.2623 38.9 21.787C40.1167 22.3123 41.175 23.025 42.075 23.925C42.975 24.825 43.6873 25.8833 44.212 27.1C44.7373 28.3167 45 29.6167 45 31C45 32.3833 44.7373 33.6833 44.212 34.9C43.6873 36.1167 42.975 37.175 42.075 38.075C41.175 38.975 40.1167 39.6873 38.9 40.212C37.6833 40.7373 36.3833 41 35 41ZM35 39C37.2333 39 39.125 38.225 40.675 36.675C42.225 35.125 43 33.2333 43 31C43 28.7667 42.225 26.875 40.675 25.325C39.125 23.775 37.2333 23 35 23C32.7667 23 30.875 23.775 29.325 25.325C27.775 26.875 27 28.7667 27 31C27 33.2333 27.775 35.125 29.325 36.675C30.875 38.225 32.7667 39 35 39Z" fill="#292929"/>
</g>
<defs>
<filter id="filter0_d_7_35" x="0" y="0" width="52" height="51" filterUnits="userSpaceOnUse" color-interpolation-filters="sRGB">
<feFlood flood-opacity="0" result="BackgroundImageFix"/>
<feColorMatrix in="SourceAlpha" type="matrix" values="0 0 0 0 0 0 0 0 0 0 0 0 0 0 0 0 0 0 127 0" result="hardAlpha"/>
<feOffset dy="4"/>
<feGaussianBlur stdDeviation="2"/>
<feComposite in2="hardAlpha" operator="out"/>
<feColorMatrix type="matrix" values="0 0 0 0 0 0 0 0 0 0 0 0 0 0 0 0 0 0 0.25 0"/>
<feBlend mode="normal" in2="BackgroundImageFix" result="effect1_dropShadow_7_35"/>
<feBlend mode="normal" in="SourceGraphic" in2="effect1_dropShadow_7_35" result="shape"/>
</filter>
</defs>
</svg>
