<svg width="18" height="18" viewBox="0 0 18 18" fill="none" xmlns="http://www.w3.org/2000/svg">
<path d="M1 18C0.716667 18 0.479333 17.904 0.288 17.712C0.0960001 17.5207 0 17.2833 0 17C0 16.7167 0.0960001 16.4793 0.288 16.288C0.479333 16.096 0.716667 16 1 16H2V2C2 1.45 2.196 0.979 2.588 0.587C2.97933 0.195667 3.45 0 4 0H14C14.55 0 15.021 0.195667 15.413 0.587C15.8043 0.979 16 1.45 16 2V16H17C17.2833 16 17.5207 16.096 17.712 16.288C17.904 16.4793 18 16.7167 18 17C18 17.2833 17.904 17.5207 17.712 17.712C17.5207 17.904 17.2833 18 17 18H1ZM14 16V2H9.5V0.9C10.2333 1.03333 10.8333 1.375 11.3 1.925C11.7667 2.475 12 3.11667 12 3.85V14.95C12 15.4333 11.8417 15.8627 11.525 16.238C11.2083 16.6127 10.8083 16.8417 10.325 16.925V16H14ZM8 10C8.28333 10 8.521 9.904 8.713 9.712C8.90433 9.52067 9 9.28333 9 9C9 8.71667 8.90433 8.479 8.713 8.287C8.521 8.09567 8.28333 8 8 8C7.71667 8 7.47933 8.09567 7.288 8.287C7.096 8.479 7 8.71667 7 9C7 9.28333 7.096 9.52067 7.288 9.712C7.47933 9.904 7.71667 10 8 10Z" fill="white"/>
</svg>
